<svg id="svg" version="1.1" xmlns="http://www.w3.org/2000/svg" xmlns:xlink="http://www.w3.org/1999/xlink" width="400" height="400" viewBox="0, 0, 400,400"><g id="svgg"><path id="path0" d="M244.500 96.070 C 243.262 96.192,241.950 96.345,241.583 96.410 C 238.292 96.999,236.937 97.294,234.959 97.852 C 208.721 105.255,192.372 131.885,197.727 158.495 L 198.107 160.382 195.903 160.276 C 183.045 159.660,167.278 156.333,153.917 151.416 C 129.249 142.339,108.437 127.600,90.375 106.414 C 89.505 105.392,89.617 105.286,87.919 108.750 C 76.659 131.731,84.018 160.768,104.646 174.750 C 106.140 175.762,106.045 175.800,102.750 175.502 C 96.363 174.924,89.994 173.113,84.292 170.252 L 82.167 169.186 82.167 170.801 C 82.173 186.282,90.346 202.269,103.122 211.787 C 108.988 216.157,116.890 219.815,123.042 221.009 C 124.599 221.312,124.501 221.383,121.708 221.980 C 115.403 223.330,107.756 223.559,102.095 222.569 C 100.512 222.293,100.561 222.260,100.924 223.364 C 107.344 242.914,126.660 257.540,147.500 258.632 L 149.750 258.750 147.338 260.563 C 131.820 272.226,112.925 279.321,92.833 281.030 C 88.008 281.441,76.083 281.267,72.667 280.737 C 71.834 280.607,72.120 280.813,75.917 283.071 C 100.212 297.524,126.899 304.609,155.167 304.113 C 179.326 303.688,200.682 298.596,221.000 288.415 C 269.702 264.010,302.196 209.928,301.990 153.617 L 301.968 147.652 303.776 146.295 C 311.303 140.644,318.425 133.563,324.187 126.000 C 326.354 123.156,328.119 120.585,327.826 120.699 C 327.692 120.751,326.571 121.208,325.333 121.714 C 319.053 124.283,313.255 126.032,306.417 127.422 C 303.650 127.984,298.143 128.864,298.039 128.761 C 298.014 128.736,298.837 128.161,299.868 127.483 C 309.512 121.138,318.013 110.121,320.913 100.208 C 321.054 99.725,321.054 99.725,319.808 100.439 C 310.369 105.840,297.708 110.645,288.879 112.176 L 287.675 112.385 285.879 110.651 C 274.878 100.026,259.481 94.600,244.500 96.070 " stroke="none" fill="#fbfbfb" fill-rule="evenodd"></path><path id="path1" d="M191.250 0.098 C 190.883 0.131,189.083 0.237,187.250 0.335 C 185.417 0.432,183.242 0.585,182.417 0.674 C 181.592 0.763,179.492 0.990,177.750 1.178 C 91.169 10.552,19.808 76.523,3.519 162.250 C -19.960 285.819,74.401 400.000,200.000 400.000 C 321.203 400.000,414.502 293.164,398.236 173.000 C 385.927 82.062,312.566 10.705,221.500 1.091 C 220.171 0.951,218.746 0.794,218.333 0.744 C 214.389 0.257,194.695 -0.213,191.250 0.098 M252.583 95.834 C 265.491 96.746,276.924 101.817,286.089 110.695 L 287.761 112.314 289.672 111.906 C 299.672 109.768,309.867 105.909,318.802 100.881 C 321.410 99.413,321.313 99.393,320.658 101.247 C 316.979 111.670,309.601 121.092,300.167 127.415 C 298.807 128.326,298.395 128.672,298.750 128.607 C 299.025 128.556,299.850 128.431,300.583 128.329 C 308.876 127.181,317.944 124.680,326.060 121.304 C 328.489 120.294,328.464 120.266,326.987 122.363 C 322.959 128.081,318.373 133.451,313.750 137.862 C 309.756 141.673,307.157 143.904,303.809 146.393 L 302.047 147.703 302.129 152.310 C 302.705 184.610,291.511 218.754,271.547 245.589 C 247.744 277.584,213.960 297.487,174.389 302.828 C 139.071 307.596,104.866 300.667,75.114 282.719 C 73.356 281.658,71.885 280.762,71.847 280.728 C 71.646 280.549,72.119 280.556,74.167 280.760 C 99.705 283.310,126.477 275.953,146.911 260.770 L 149.406 258.917 146.828 258.715 C 126.427 257.116,109.121 244.372,101.611 225.417 C 100.393 222.345,100.340 222.122,100.855 222.244 C 106.044 223.481,114.984 223.329,121.625 221.891 C 124.044 221.367,124.066 221.337,122.298 220.939 C 99.767 215.875,83.087 195.403,82.058 171.553 L 81.948 168.999 84.691 170.325 C 91.054 173.401,99.050 175.491,104.484 175.499 L 105.552 175.500 104.318 174.641 C 82.952 159.769,76.095 128.901,89.114 106.202 L 89.619 105.320 90.845 106.785 C 117.087 138.151,155.114 157.543,195.498 160.153 C 198.365 160.339,198.038 160.562,197.653 158.684 C 190.771 125.134,218.485 93.425,252.583 95.834 " stroke="none" fill="#2cace4" fill-rule="evenodd"></path><path id="path2" d="M286.160 110.875 C 286.850 111.611,287.000 111.743,287.000 111.618 C 287.000 111.591,286.644 111.235,286.208 110.826 L 285.417 110.083 286.160 110.875 M98.326 115.208 C 98.735 115.644,99.091 116.000,99.118 116.000 C 99.243 116.000,99.111 115.850,98.375 115.160 L 97.583 114.417 98.326 115.208 M101.000 117.917 C 101.311 118.237,101.603 118.500,101.649 118.500 C 101.695 118.500,101.478 118.237,101.167 117.917 C 100.856 117.596,100.564 117.333,100.518 117.333 C 100.472 117.333,100.689 117.596,101.000 117.917 M308.245 120.708 L 307.250 121.750 308.292 120.755 C 308.865 120.208,309.333 119.739,309.333 119.714 C 309.333 119.590,309.169 119.741,308.245 120.708 M302.050 151.333 C 302.050 151.837,302.081 152.044,302.119 151.792 C 302.158 151.540,302.158 151.127,302.119 150.875 C 302.081 150.623,302.050 150.829,302.050 151.333 M302.050 157.667 C 302.050 158.171,302.081 158.377,302.119 158.125 C 302.158 157.873,302.158 157.460,302.119 157.208 C 302.081 156.956,302.050 157.162,302.050 157.667 M82.048 170.750 C 82.049 171.208,82.081 171.376,82.120 171.123 C 82.158 170.869,82.157 170.494,82.117 170.289 C 82.078 170.084,82.046 170.292,82.048 170.750 M97.333 206.917 C 97.644 207.237,97.936 207.500,97.982 207.500 C 98.028 207.500,97.811 207.237,97.500 206.917 C 97.189 206.596,96.897 206.333,96.851 206.333 C 96.805 206.333,97.022 206.596,97.333 206.917 M86.875 281.282 C 87.035 281.323,87.298 281.323,87.458 281.282 C 87.619 281.240,87.487 281.205,87.167 281.205 C 86.846 281.205,86.715 281.240,86.875 281.282 " stroke="none" fill="#7bc9ec" fill-rule="evenodd"></path><path id="path3" d="M211.829 111.458 L 210.750 112.583 211.875 111.505 C 212.494 110.912,213.000 110.405,213.000 110.380 C 213.000 110.257,212.830 110.413,211.829 111.458 M96.667 113.552 C 96.667 113.581,96.910 113.825,97.208 114.094 L 97.750 114.583 97.260 114.042 C 96.804 113.537,96.667 113.423,96.667 113.552 M102.250 119.167 C 102.608 119.533,102.938 119.833,102.984 119.833 C 103.030 119.833,102.775 119.533,102.417 119.167 C 102.059 118.800,101.728 118.500,101.682 118.500 C 101.637 118.500,101.892 118.800,102.250 119.167 M82.539 129.333 C 82.539 129.654,82.573 129.785,82.615 129.625 C 82.657 129.465,82.657 129.202,82.615 129.042 C 82.573 128.881,82.539 129.012,82.539 129.333 M82.542 134.083 C 82.544 134.450,82.578 134.580,82.618 134.373 C 82.658 134.166,82.656 133.866,82.615 133.706 C 82.573 133.547,82.540 133.717,82.542 134.083 M196.721 149.083 C 196.722 149.725,196.752 149.967,196.788 149.621 C 196.824 149.275,196.824 148.750,196.787 148.455 C 196.750 148.159,196.721 148.442,196.721 149.083 M302.066 154.500 C 302.066 155.829,302.092 156.373,302.124 155.708 C 302.155 155.044,302.155 153.956,302.124 153.292 C 302.092 152.627,302.066 153.171,302.066 154.500 M97.750 169.000 C 98.294 169.550,98.777 170.000,98.823 170.000 C 98.869 170.000,98.461 169.550,97.917 169.000 C 97.372 168.450,96.890 168.000,96.844 168.000 C 96.798 168.000,97.206 168.450,97.750 169.000 M148.794 258.785 C 149.001 258.824,149.301 258.823,149.460 258.781 C 149.620 258.739,149.450 258.707,149.083 258.709 C 148.717 258.711,148.586 258.745,148.794 258.785 M257.247 262.042 L 255.417 263.917 257.292 262.086 C 258.323 261.079,259.167 260.236,259.167 260.211 C 259.167 260.091,258.947 260.300,257.247 262.042 M87.958 281.284 C 88.165 281.324,88.502 281.324,88.708 281.284 C 88.915 281.245,88.746 281.212,88.333 281.212 C 87.921 281.212,87.752 281.245,87.958 281.284 M146.127 304.118 C 146.334 304.158,146.634 304.156,146.794 304.115 C 146.953 304.073,146.783 304.040,146.417 304.042 C 146.050 304.044,145.920 304.078,146.127 304.118 M158.125 304.118 C 158.331 304.157,158.669 304.157,158.875 304.118 C 159.081 304.078,158.912 304.045,158.500 304.045 C 158.087 304.045,157.919 304.078,158.125 304.118 " stroke="none" fill="#afdef4" fill-rule="evenodd"></path><path id="path4" d="M248.375 95.790 C 248.902 95.823,249.765 95.823,250.292 95.790 C 250.819 95.757,250.387 95.730,249.333 95.730 C 248.279 95.730,247.848 95.757,248.375 95.790 M99.750 116.667 C 100.108 117.033,100.438 117.333,100.484 117.333 C 100.530 117.333,100.275 117.033,99.917 116.667 C 99.559 116.300,99.228 116.000,99.182 116.000 C 99.137 116.000,99.392 116.300,99.750 116.667 M315.742 135.875 L 315.083 136.583 315.792 135.925 C 316.450 135.312,316.577 135.167,316.450 135.167 C 316.423 135.167,316.105 135.485,315.742 135.875 M98.000 207.552 C 98.000 207.581,98.244 207.825,98.542 208.094 L 99.083 208.583 98.594 208.042 C 98.138 207.537,98.000 207.423,98.000 207.552 M108.211 223.120 C 108.464 223.158,108.839 223.157,109.044 223.117 C 109.249 223.078,109.042 223.046,108.583 223.048 C 108.125 223.049,107.957 223.081,108.211 223.120 M113.417 243.500 C 114.053 244.142,114.612 244.667,114.658 244.667 C 114.704 244.667,114.220 244.142,113.583 243.500 C 112.947 242.858,112.388 242.333,112.342 242.333 C 112.296 242.333,112.780 242.858,113.417 243.500 M260.073 259.208 L 259.583 259.750 260.125 259.260 C 260.630 258.804,260.743 258.667,260.615 258.667 C 260.586 258.667,260.342 258.910,260.073 259.208 M254.240 265.042 L 253.750 265.583 254.292 265.094 C 254.797 264.638,254.910 264.500,254.781 264.500 C 254.752 264.500,254.509 264.744,254.240 265.042 M81.458 281.287 C 81.756 281.324,82.244 281.324,82.542 281.287 C 82.840 281.250,82.596 281.220,82.000 281.220 C 81.404 281.220,81.160 281.250,81.458 281.287 M85.544 281.286 C 85.797 281.325,86.172 281.324,86.377 281.284 C 86.582 281.244,86.375 281.213,85.917 281.214 C 85.458 281.216,85.291 281.248,85.544 281.286 M150.384 304.291 C 151.282 304.321,152.707 304.321,153.550 304.291 C 154.393 304.261,153.658 304.236,151.917 304.236 C 150.175 304.236,149.485 304.261,150.384 304.291 " stroke="none" fill="#57bce6" fill-rule="evenodd"></path></g></svg>