<svg id="svg" version="1.1" xmlns="http://www.w3.org/2000/svg" xmlns:xlink="http://www.w3.org/1999/xlink" width="400" height="400" viewBox="0, 0, 400,400"><g id="svgg"><path id="path0" d="M154.200 54.856 C 130.612 55.495,120.160 56.868,108.400 60.874 C 78.725 70.981,60.137 95.475,56.241 129.600 C 53.589 152.837,53.857 252.344,56.628 273.200 C 61.785 312.016,87.116 337.654,125.800 343.212 C 142.712 345.642,237.079 346.462,262.800 344.403 C 314.138 340.292,341.487 312.604,344.400 261.792 C 345.603 240.803,345.611 151.743,344.411 137.000 C 340.286 86.307,312.949 58.968,263.000 55.581 C 248.080 54.569,181.260 54.124,154.200 54.856 M249.200 81.220 C 268.289 81.928,276.802 83.181,285.593 86.576 C 303.572 93.520,314.500 108.651,317.385 130.600 C 319.751 148.599,319.769 253.013,317.409 269.488 C 313.370 297.684,297.569 313.455,269.395 317.410 C 253.573 319.631,149.035 319.762,132.000 317.582 C 99.340 313.402,84.563 296.369,81.526 259.400 C 80.805 250.628,80.772 153.370,81.486 142.200 C 83.956 103.555,99.804 85.463,134.200 82.021 C 145.780 80.862,224.726 80.313,249.200 81.220 M273.783 105.358 C 260.712 108.534,255.847 124.573,264.990 134.348 C 274.696 144.724,292.292 139.389,294.808 125.308 C 296.954 113.304,285.564 102.496,273.783 105.358 M192.800 125.618 C 129.899 132.454,102.823 207.925,147.194 252.738 C 186.048 291.979,253.761 275.817,270.943 223.200 C 287.528 172.411,245.472 119.893,192.800 125.618 M206.600 152.014 C 246.468 157.682,262.450 206.299,233.765 234.649 C 208.517 259.602,165.357 249.161,154.032 215.360 C 142.665 181.432,171.249 146.988,206.600 152.014 " stroke="none" fill="#fbf7f8" fill-rule="evenodd"></path><path id="path1" d="M95.200 3.203 C 41.078 4.845,8.168 34.739,3.613 86.400 C 2.994 93.410,3.065 120.532,3.700 120.135 C 3.975 119.964,4.560 119.759,5.000 119.680 C 6.472 119.417,6.597 119.379,7.162 119.027 C 7.580 118.766,7.637 118.820,7.385 119.238 C 7.120 119.677,7.208 119.669,7.785 119.200 C 8.191 118.870,8.855 118.578,9.261 118.550 C 9.668 118.523,10.045 118.464,10.100 118.420 C 10.187 118.351,10.665 118.244,12.600 117.857 C 12.820 117.813,13.253 117.620,13.562 117.427 C 13.979 117.167,14.039 117.221,13.793 117.638 C 13.537 118.073,13.636 118.063,14.231 117.592 C 14.654 117.258,15.663 116.997,16.474 117.012 C 17.285 117.027,17.859 116.895,17.750 116.720 C 17.642 116.544,17.977 116.400,18.496 116.400 C 19.015 116.400,19.682 116.175,19.979 115.900 C 20.414 115.496,20.456 115.507,20.197 115.962 C 19.960 116.377,20.023 116.432,20.438 116.173 C 20.747 115.981,21.360 115.759,21.800 115.680 C 23.272 115.417,23.397 115.379,23.962 115.027 C 24.380 114.766,24.437 114.820,24.185 115.238 C 23.920 115.677,24.008 115.669,24.585 115.200 C 24.991 114.870,25.675 114.660,26.105 114.733 C 26.668 114.828,26.797 114.715,26.567 114.333 C 26.303 113.893,26.359 113.891,26.888 114.319 C 27.382 114.720,27.597 114.729,27.826 114.358 C 28.027 114.032,27.954 113.981,27.600 114.200 C 27.270 114.404,27.173 114.367,27.339 114.099 C 27.483 113.866,27.989 113.777,28.463 113.901 C 28.980 114.036,29.227 113.967,29.080 113.730 C 28.945 113.512,29.089 113.333,29.400 113.333 C 29.711 113.333,29.882 113.468,29.780 113.632 C 29.503 114.080,30.441 113.852,31.907 113.113 C 32.625 112.751,33.093 112.650,32.945 112.889 C 32.766 113.178,32.864 113.205,33.238 112.968 C 33.837 112.589,34.044 112.529,35.024 112.450 C 35.367 112.422,35.555 112.250,35.441 112.067 C 35.328 111.883,35.489 111.733,35.800 111.733 C 36.111 111.733,36.282 111.868,36.180 112.032 C 35.937 112.426,36.842 112.277,37.600 111.799 C 37.930 111.590,38.535 111.475,38.944 111.543 C 39.396 111.617,39.583 111.495,39.420 111.233 C 39.154 110.803,39.888 110.633,41.344 110.786 C 41.753 110.830,41.986 110.700,41.861 110.499 C 41.737 110.298,41.889 110.133,42.200 110.133 C 42.511 110.133,42.691 110.253,42.600 110.400 C 42.509 110.547,42.689 110.667,43.000 110.667 C 43.311 110.667,43.472 110.517,43.359 110.333 C 43.245 110.150,43.577 110.000,44.096 110.000 C 44.615 110.000,45.282 109.775,45.579 109.500 C 46.014 109.096,46.056 109.107,45.797 109.562 C 45.559 109.978,45.622 110.032,46.038 109.768 C 46.637 109.389,46.844 109.329,47.824 109.250 C 48.167 109.222,48.355 109.050,48.241 108.867 C 48.128 108.683,48.289 108.533,48.600 108.533 C 48.911 108.533,49.091 108.653,49.000 108.800 C 48.909 108.947,49.089 109.067,49.400 109.067 C 49.711 109.067,49.872 108.917,49.759 108.733 C 49.645 108.550,49.844 108.400,50.200 108.400 C 50.611 108.400,50.738 108.218,50.547 107.900 C 50.308 107.503,50.372 107.501,50.853 107.890 C 51.332 108.278,51.570 108.278,51.988 107.890 C 52.414 107.496,52.452 107.517,52.182 108.000 C 51.888 108.526,51.934 108.529,52.557 108.023 C 52.947 107.706,53.747 107.423,54.334 107.395 C 54.920 107.366,55.701 107.207,56.069 107.041 C 56.437 106.874,56.977 106.702,57.269 106.658 C 57.561 106.614,58.053 106.420,58.362 106.227 C 58.780 105.966,58.837 106.020,58.585 106.438 C 58.320 106.877,58.408 106.869,58.985 106.400 C 59.391 106.070,60.081 105.800,60.518 105.800 C 61.439 105.800,61.312 106.007,64.149 99.915 C 76.440 73.521,101.279 58.190,135.924 55.614 C 151.529 54.454,225.390 53.921,249.327 54.796 C 259.542 55.169,260.742 55.082,261.622 53.902 C 261.745 53.738,262.317 53.565,262.894 53.517 C 263.470 53.469,263.855 53.288,263.748 53.115 C 263.640 52.942,264.058 52.797,264.676 52.794 C 265.549 52.789,265.666 52.701,265.200 52.400 C 264.746 52.107,264.922 52.011,265.924 52.006 C 266.703 52.003,267.146 51.836,267.000 51.600 C 266.864 51.380,267.044 51.200,267.400 51.200 C 267.807 51.200,267.939 51.386,267.755 51.700 C 267.594 51.975,267.823 51.885,268.264 51.499 C 268.704 51.114,269.214 50.934,269.397 51.099 C 269.579 51.265,269.599 51.175,269.441 50.900 C 269.252 50.573,269.422 50.400,269.931 50.400 C 270.932 50.400,272.868 49.401,272.527 49.061 C 272.384 48.917,272.636 48.800,273.088 48.800 C 274.122 48.800,276.075 47.809,275.727 47.461 C 275.497 47.230,277.260 47.011,278.130 47.163 C 278.311 47.194,278.345 47.035,278.206 46.810 C 278.056 46.568,278.412 46.397,279.076 46.394 C 279.949 46.389,280.066 46.301,279.600 46.000 C 279.039 45.637,280.147 45.357,281.330 45.563 C 281.511 45.594,281.545 45.435,281.406 45.210 C 281.256 44.968,281.612 44.797,282.276 44.794 C 283.149 44.789,283.266 44.701,282.800 44.400 C 282.346 44.107,282.522 44.011,283.524 44.006 C 284.303 44.003,284.746 43.836,284.600 43.600 C 284.464 43.380,284.644 43.200,285.000 43.200 C 285.405 43.200,285.539 43.387,285.359 43.700 C 285.201 43.975,285.517 43.795,286.061 43.300 C 286.606 42.805,287.490 42.387,288.026 42.372 C 288.928 42.346,288.941 42.318,288.200 42.000 C 287.491 41.695,287.525 41.653,288.500 41.628 C 289.105 41.613,289.600 41.420,289.600 41.200 C 289.600 40.980,290.118 40.800,290.751 40.800 C 291.384 40.800,292.124 40.532,292.396 40.204 C 292.668 39.877,293.078 39.725,293.307 39.866 C 293.549 40.016,293.604 39.930,293.438 39.662 C 293.249 39.356,293.533 39.190,294.276 39.172 C 295.265 39.147,295.304 39.102,294.600 38.800 C 293.846 38.476,295.294 38.148,296.530 38.363 C 296.711 38.394,296.745 38.235,296.606 38.010 C 296.460 37.773,296.764 37.600,297.327 37.600 C 297.863 37.600,298.524 37.332,298.796 37.004 C 299.068 36.677,299.478 36.525,299.707 36.666 C 299.949 36.816,300.004 36.730,299.838 36.462 C 299.649 36.156,299.933 35.990,300.676 35.972 C 301.665 35.947,301.704 35.902,301.000 35.600 C 300.291 35.295,300.325 35.253,301.300 35.228 C 301.905 35.213,302.400 35.020,302.400 34.800 C 302.400 34.580,302.918 34.400,303.551 34.400 C 304.184 34.400,304.924 34.132,305.196 33.804 C 305.468 33.477,305.878 33.325,306.107 33.466 C 306.349 33.616,306.404 33.530,306.238 33.262 C 306.049 32.956,306.333 32.790,307.076 32.772 C 308.065 32.747,308.104 32.702,307.400 32.400 C 306.691 32.095,306.725 32.053,307.700 32.028 C 308.305 32.013,308.800 31.820,308.800 31.600 C 308.800 31.380,309.306 31.200,309.925 31.200 C 310.653 31.200,311.456 30.776,312.200 30.000 C 312.885 29.285,313.764 28.798,314.375 28.794 C 315.184 28.789,315.273 28.706,314.800 28.400 C 314.312 28.085,314.364 28.011,315.076 28.006 C 315.558 28.003,316.064 27.820,316.200 27.600 C 316.336 27.380,316.932 27.197,317.524 27.194 C 318.366 27.189,318.469 27.103,318.000 26.800 C 317.479 26.463,317.486 26.411,318.054 26.406 C 318.968 26.398,320.844 25.377,320.527 25.061 C 320.384 24.917,320.636 24.800,321.088 24.800 C 322.251 24.800,324.199 23.742,323.528 23.474 C 323.238 23.358,323.541 23.249,324.201 23.232 C 324.991 23.211,325.791 22.788,326.535 22.000 C 327.237 21.256,328.073 20.798,328.734 20.794 C 329.569 20.789,329.670 20.704,329.200 20.400 C 328.639 20.037,329.747 19.757,330.930 19.963 C 331.111 19.994,331.145 19.835,331.006 19.610 C 330.867 19.384,331.044 19.200,331.400 19.200 C 331.756 19.200,331.936 19.020,331.800 18.800 C 331.661 18.575,331.980 18.400,332.527 18.400 C 333.063 18.400,333.724 18.132,333.996 17.804 C 334.268 17.477,334.695 17.326,334.945 17.469 C 335.195 17.611,335.267 17.581,335.103 17.401 C 334.615 16.862,335.623 16.000,336.749 15.994 C 337.574 15.989,337.671 15.905,337.200 15.600 C 336.639 15.237,337.747 14.957,338.930 15.163 C 339.111 15.194,339.145 15.035,339.006 14.810 C 338.867 14.584,339.078 14.397,339.476 14.394 C 340.090 14.389,340.109 14.329,339.600 14.000 C 339.142 13.704,339.296 13.611,340.251 13.606 C 341.623 13.599,342.826 12.635,341.917 12.270 C 341.447 12.082,342.949 11.827,343.730 11.963 C 343.911 11.994,343.955 11.851,343.827 11.644 C 343.700 11.437,343.799 11.200,344.048 11.117 C 344.602 10.933,340.083 9.164,336.000 7.968 C 334.350 7.484,332.828 6.990,332.617 6.869 C 332.406 6.749,331.803 6.604,331.277 6.548 C 330.751 6.492,329.124 6.179,327.660 5.853 C 326.197 5.528,323.560 5.055,321.800 4.804 C 320.040 4.553,318.150 4.271,317.600 4.178 C 317.050 4.085,314.890 3.903,312.800 3.773 C 310.710 3.643,308.190 3.442,307.200 3.326 C 304.329 2.989,106.037 2.875,95.200 3.203 M141.707 81.623 C 124.450 82.473,112.450 85.955,103.280 92.770 C 99.955 95.242,98.191 96.962,99.935 96.033 C 100.449 95.759,101.344 95.448,101.923 95.343 C 102.502 95.238,103.240 94.938,103.564 94.676 C 104.026 94.303,104.088 94.308,103.853 94.700 C 103.688 94.975,103.728 95.200,103.943 95.200 C 104.158 95.200,104.393 95.037,104.467 94.837 C 104.540 94.637,105.230 94.416,106.000 94.344 C 106.770 94.273,107.827 94.001,108.350 93.739 C 108.872 93.477,109.554 93.361,109.865 93.480 C 110.175 93.599,110.783 93.377,111.215 92.987 C 111.684 92.562,112.000 92.466,112.000 92.748 C 112.000 93.078,112.361 93.034,113.200 92.600 C 113.860 92.259,114.400 92.080,114.400 92.204 C 114.400 92.327,114.801 92.213,115.292 91.951 C 115.782 91.689,116.907 91.393,117.792 91.294 C 118.676 91.195,119.660 90.908,119.977 90.657 C 120.440 90.290,120.484 90.318,120.200 90.800 C 119.912 91.289,119.955 91.312,120.436 90.924 C 120.760 90.662,121.469 90.349,122.012 90.228 C 122.556 90.107,123.540 89.892,124.200 89.751 C 124.860 89.609,125.660 89.292,125.977 89.046 C 126.438 88.689,126.483 88.720,126.200 89.200 C 125.908 89.696,125.952 89.715,126.453 89.310 C 126.857 88.983,127.192 88.952,127.459 89.219 C 127.726 89.486,128.103 89.349,128.591 88.809 C 128.994 88.364,129.521 88.003,129.762 88.006 C 130.003 88.009,129.930 88.187,129.600 88.400 C 129.083 88.734,129.093 88.789,129.676 88.794 C 130.048 88.797,130.474 88.604,130.622 88.365 C 130.769 88.126,131.223 88.017,131.630 88.124 C 132.038 88.230,132.561 88.088,132.793 87.808 C 133.025 87.528,133.745 87.344,134.391 87.399 C 135.089 87.459,135.533 87.317,135.483 87.050 C 135.433 86.776,135.909 86.640,136.700 86.701 C 137.522 86.765,137.964 86.631,137.900 86.338 C 137.845 86.083,138.288 85.840,138.885 85.799 C 139.482 85.759,139.883 85.866,139.777 86.038 C 139.670 86.210,139.222 86.281,138.781 86.196 C 138.340 86.111,138.074 86.196,138.191 86.385 C 138.458 86.818,139.354 86.697,140.060 86.134 C 140.357 85.897,140.909 85.753,141.288 85.814 C 141.666 85.875,141.936 85.725,141.888 85.481 C 141.839 85.233,142.360 85.028,143.067 85.018 C 143.763 85.008,144.483 84.836,144.667 84.636 C 144.864 84.420,144.771 84.405,144.438 84.598 C 144.078 84.807,143.971 84.771,144.140 84.497 C 144.285 84.263,144.717 84.122,145.102 84.184 C 145.486 84.246,146.009 84.132,146.264 83.929 C 146.555 83.699,146.830 83.726,147.000 84.000 C 147.192 84.310,147.460 84.286,147.912 83.919 C 148.454 83.481,148.500 83.493,148.208 84.000 C 148.002 84.357,148.242 84.276,148.800 83.800 C 149.358 83.324,149.598 83.243,149.392 83.600 C 149.094 84.117,149.140 84.124,149.723 83.651 C 150.095 83.349,150.400 83.236,150.400 83.400 C 150.400 83.564,150.644 83.496,150.942 83.248 C 151.240 83.001,152.230 82.770,153.142 82.734 C 154.054 82.698,154.800 82.518,154.800 82.334 C 154.800 82.150,154.991 82.000,155.224 82.000 C 155.457 82.000,155.512 82.225,155.347 82.500 C 155.117 82.882,155.196 82.879,155.681 82.486 C 156.029 82.204,157.099 81.819,158.057 81.630 C 160.271 81.195,150.475 81.190,141.707 81.623 " stroke="none" fill="#7648c9" fill-rule="evenodd"></path><path id="path2" d="M54.561 232.800 C 54.561 236.210,54.622 237.605,54.697 235.900 C 54.772 234.195,54.772 231.405,54.697 229.700 C 54.622 227.995,54.561 229.390,54.561 232.800 M80.931 243.400 C 80.933 244.940,81.005 245.521,81.092 244.691 C 81.179 243.861,81.177 242.601,81.089 241.891 C 81.000 241.181,80.929 241.860,80.931 243.400 M54.914 252.600 C 54.917 253.700,54.995 254.103,55.087 253.495 C 55.179 252.886,55.177 251.986,55.082 251.495 C 54.987 251.003,54.911 251.500,54.914 252.600 M81.309 255.200 C 81.309 256.190,81.387 256.595,81.482 256.100 C 81.578 255.605,81.578 254.795,81.482 254.300 C 81.387 253.805,81.309 254.210,81.309 255.200 M195.300 274.676 C 195.685 274.776,196.315 274.776,196.700 274.676 C 197.085 274.575,196.770 274.493,196.000 274.493 C 195.230 274.493,194.915 274.575,195.300 274.676 M99.313 290.940 C 99.174 291.166,99.292 291.191,99.600 291.000 C 99.904 290.812,100.026 290.834,99.891 291.053 C 99.762 291.261,98.430 291.410,96.929 291.386 C 95.428 291.361,93.991 291.498,93.736 291.690 C 93.461 291.897,93.164 291.865,93.008 291.613 C 92.863 291.379,92.574 291.292,92.366 291.421 C 92.157 291.550,92.081 291.807,92.195 291.993 C 92.429 292.370,91.626 292.319,90.981 291.915 C 87.635 289.821,92.167 296.999,97.611 302.418 C 111.504 316.248,122.829 318.686,174.400 318.949 C 187.930 319.018,195.859 319.009,192.021 318.928 C 186.134 318.804,184.915 318.673,184.228 318.090 C 183.440 317.422,183.432 317.426,183.988 318.200 C 184.304 318.640,183.839 318.321,182.956 317.492 C 182.072 316.662,181.211 316.122,181.041 316.292 C 180.872 316.461,180.793 316.338,180.867 316.018 C 180.940 315.698,180.730 315.420,180.400 315.400 C 180.070 315.380,179.845 315.147,179.900 314.882 C 179.955 314.617,179.775 314.445,179.500 314.500 C 179.225 314.555,179.041 314.386,179.092 314.125 C 179.145 313.847,178.850 313.713,178.381 313.804 C 177.940 313.889,177.671 313.808,177.785 313.624 C 177.898 313.441,177.689 313.045,177.319 312.745 C 176.741 312.276,176.694 312.284,176.985 312.800 C 177.171 313.130,176.773 312.887,176.099 312.261 C 175.426 311.635,174.723 311.095,174.537 311.061 C 174.352 311.027,174.241 310.876,174.292 310.725 C 174.342 310.573,174.031 310.517,173.600 310.600 C 173.169 310.683,172.858 310.627,172.908 310.475 C 172.959 310.324,172.884 310.200,172.742 310.200 C 172.600 310.200,172.150 309.898,171.742 309.529 C 171.334 309.159,170.820 308.799,170.600 308.729 C 170.380 308.658,170.241 308.476,170.292 308.325 C 170.342 308.173,170.011 308.121,169.556 308.208 C 168.905 308.334,168.823 308.254,169.171 307.835 C 169.517 307.418,169.417 307.314,168.706 307.352 C 168.201 307.379,167.841 307.189,167.892 306.925 C 167.945 306.648,167.652 306.513,167.192 306.602 C 166.710 306.694,166.400 306.537,166.400 306.200 C 166.400 305.863,166.090 305.706,165.608 305.798 C 165.173 305.882,164.695 305.754,164.547 305.514 C 164.373 305.233,164.464 305.192,164.800 305.400 C 165.136 305.608,165.227 305.567,165.053 305.286 C 164.905 305.046,164.427 304.918,163.992 305.002 C 163.510 305.094,163.200 304.937,163.200 304.600 C 163.200 304.263,162.890 304.106,162.408 304.198 C 161.948 304.287,161.655 304.152,161.708 303.875 C 161.759 303.614,161.403 303.421,160.918 303.446 C 160.433 303.472,160.073 303.300,160.118 303.065 C 160.163 302.829,159.810 302.628,159.333 302.618 C 158.857 302.608,158.317 302.436,158.133 302.236 C 157.936 302.020,158.029 302.005,158.362 302.198 C 158.728 302.410,158.829 302.371,158.653 302.086 C 158.505 301.846,158.027 301.718,157.592 301.802 C 157.110 301.894,156.800 301.737,156.800 301.400 C 156.800 301.063,156.490 300.906,156.008 300.998 C 155.573 301.082,155.095 300.954,154.947 300.714 C 154.773 300.433,154.864 300.392,155.200 300.600 C 155.525 300.801,155.626 300.766,155.468 300.510 C 155.328 300.283,154.667 300.143,154.000 300.200 C 153.333 300.257,152.672 300.117,152.532 299.890 C 152.390 299.660,152.470 299.596,152.711 299.745 C 152.949 299.892,153.239 299.861,153.353 299.675 C 153.468 299.490,152.986 299.350,152.281 299.366 C 151.519 299.383,151.036 299.208,151.088 298.934 C 151.136 298.681,150.866 298.525,150.488 298.586 C 150.109 298.647,149.547 298.495,149.239 298.249 C 148.930 298.002,148.372 297.800,148.000 297.800 C 147.628 297.800,147.025 297.553,146.661 297.251 C 146.298 296.949,146.000 296.836,146.000 297.000 C 146.000 297.164,145.695 297.051,145.323 296.749 C 144.739 296.275,144.695 296.282,145.000 296.800 C 145.314 297.333,145.272 297.333,144.615 296.800 C 144.209 296.470,143.572 296.200,143.200 296.200 C 142.828 296.200,142.191 295.930,141.785 295.600 C 141.208 295.131,141.120 295.123,141.385 295.562 C 141.638 295.981,141.581 296.034,141.162 295.768 C 140.853 295.572,140.240 295.401,139.800 295.388 C 139.360 295.375,139.035 295.177,139.078 294.948 C 139.121 294.720,138.903 294.533,138.595 294.533 C 138.287 294.533,138.152 294.728,138.294 294.967 C 138.468 295.257,138.363 295.252,137.977 294.951 C 137.660 294.705,137.086 294.554,136.702 294.616 C 136.317 294.678,135.885 294.537,135.740 294.303 C 135.573 294.033,135.669 293.996,136.000 294.200 C 136.314 294.394,136.426 294.366,136.281 294.131 C 136.147 293.915,135.121 293.766,134.000 293.800 C 132.879 293.834,131.853 293.685,131.719 293.469 C 131.586 293.253,131.672 293.197,131.911 293.345 C 132.149 293.492,132.437 293.464,132.549 293.282 C 132.662 293.100,131.674 292.973,130.355 293.001 C 129.035 293.029,127.848 292.877,127.716 292.664 C 127.574 292.434,127.689 292.408,128.000 292.600 C 128.312 292.793,128.426 292.766,128.283 292.534 C 128.150 292.319,127.357 292.172,126.521 292.206 C 125.684 292.239,124.740 292.072,124.423 291.833 C 123.965 291.489,123.919 291.523,124.200 292.000 C 124.511 292.528,124.468 292.530,123.836 292.018 C 123.015 291.350,121.882 291.086,122.226 291.642 C 122.352 291.846,122.651 291.892,122.889 291.745 C 123.157 291.579,123.208 291.664,123.022 291.964 C 122.789 292.341,122.570 292.325,122.060 291.894 C 121.670 291.563,120.614 291.357,119.475 291.389 C 118.417 291.419,117.459 291.296,117.348 291.115 C 117.236 290.935,116.932 290.922,116.672 291.087 C 115.978 291.529,115.473 291.506,114.800 291.000 C 113.956 290.366,112.170 290.500,112.323 291.186 C 112.425 291.644,112.333 291.642,111.767 291.173 C 111.027 290.558,104.496 290.320,104.141 290.895 C 104.033 291.070,103.732 291.080,103.472 290.917 C 102.772 290.478,99.588 290.496,99.313 290.940 M61.560 299.848 C 61.312 300.147,60.962 300.300,60.782 300.189 C 60.602 300.078,60.325 300.198,60.166 300.455 C 59.970 300.773,60.057 300.819,60.438 300.598 C 60.771 300.405,60.864 300.420,60.667 300.636 C 60.483 300.836,59.943 301.008,59.467 301.018 C 58.990 301.028,58.637 301.231,58.683 301.468 C 58.731 301.714,58.266 301.857,57.600 301.800 C 56.958 301.745,56.471 301.840,56.517 302.010 C 56.563 302.181,56.420 302.351,56.200 302.389 C 55.980 302.426,55.530 302.692,55.200 302.979 C 54.870 303.266,54.291 303.449,53.912 303.387 C 53.534 303.325,53.264 303.475,53.312 303.719 C 53.361 303.964,53.130 304.180,52.800 304.200 C 52.470 304.220,52.239 304.436,52.288 304.681 C 52.336 304.925,52.066 305.075,51.688 305.013 C 51.309 304.951,50.730 305.134,50.400 305.421 C 50.070 305.708,49.620 306.001,49.400 306.071 C 49.180 306.142,49.041 306.324,49.092 306.475 C 49.142 306.627,48.831 306.683,48.400 306.600 C 47.947 306.513,47.655 306.650,47.708 306.925 C 47.759 307.186,47.403 307.379,46.918 307.354 C 46.433 307.328,46.073 307.500,46.118 307.735 C 46.163 307.971,45.930 308.180,45.600 308.200 C 45.270 308.220,45.041 308.442,45.092 308.694 C 45.143 308.950,44.839 309.085,44.400 309.000 C 43.947 308.913,43.655 309.050,43.708 309.325 C 43.759 309.586,43.403 309.779,42.918 309.754 C 42.433 309.728,42.073 309.900,42.118 310.135 C 42.163 310.371,41.930 310.580,41.600 310.600 C 41.270 310.620,41.045 310.853,41.100 311.118 C 41.155 311.383,40.975 311.555,40.700 311.500 C 40.425 311.445,40.241 311.614,40.292 311.875 C 40.345 312.150,40.053 312.287,39.600 312.200 C 39.169 312.117,38.858 312.200,38.908 312.385 C 38.959 312.569,38.848 312.720,38.663 312.721 C 38.477 312.722,37.764 313.235,37.078 313.861 C 36.392 314.487,36.091 314.640,36.408 314.200 C 36.979 313.410,36.975 313.410,36.103 314.153 C 35.617 314.568,35.318 315.067,35.439 315.263 C 35.560 315.459,35.421 315.570,35.130 315.510 C 34.838 315.449,34.641 315.614,34.692 315.875 C 34.745 316.150,34.453 316.287,34.000 316.200 C 33.547 316.113,33.255 316.250,33.308 316.525 C 33.359 316.786,33.175 316.955,32.900 316.900 C 32.625 316.845,32.445 316.962,32.500 317.160 C 32.555 317.358,32.420 317.551,32.200 317.589 C 31.980 317.626,31.515 317.915,31.168 318.229 C 30.820 318.544,30.400 318.666,30.234 318.501 C 30.069 318.335,29.993 318.470,30.067 318.800 C 30.140 319.130,29.975 319.355,29.700 319.300 C 29.425 319.245,29.245 319.417,29.300 319.682 C 29.355 319.947,29.130 320.180,28.800 320.200 C 28.470 320.220,28.245 320.453,28.300 320.718 C 28.355 320.983,28.175 321.155,27.900 321.100 C 27.625 321.045,27.445 321.225,27.500 321.500 C 27.555 321.775,27.375 321.955,27.100 321.900 C 26.825 321.845,26.645 322.025,26.700 322.300 C 26.755 322.575,26.575 322.755,26.300 322.700 C 26.025 322.645,25.845 322.825,25.900 323.100 C 25.955 323.375,25.775 323.555,25.500 323.500 C 25.225 323.445,25.045 323.625,25.100 323.900 C 25.155 324.175,24.975 324.355,24.700 324.300 C 24.425 324.245,24.249 324.438,24.310 324.730 C 24.370 325.021,24.259 325.160,24.063 325.039 C 23.580 324.741,22.320 326.179,22.699 326.597 C 22.865 326.779,22.799 326.814,22.553 326.674 C 22.002 326.359,20.684 327.739,21.099 328.197 C 21.265 328.379,21.199 328.414,20.953 328.274 C 20.413 327.965,19.073 329.340,19.499 329.766 C 19.665 329.931,19.530 330.007,19.200 329.933 C 18.870 329.860,18.645 330.025,18.700 330.300 C 18.755 330.575,18.575 330.755,18.300 330.700 C 18.025 330.645,17.845 330.825,17.900 331.100 C 17.955 331.375,17.775 331.555,17.500 331.500 C 17.225 331.445,17.045 331.625,17.100 331.900 C 17.155 332.175,16.975 332.355,16.700 332.300 C 16.425 332.245,16.245 332.425,16.300 332.700 C 16.355 332.975,16.175 333.155,15.900 333.100 C 15.625 333.045,15.445 333.225,15.500 333.500 C 15.555 333.775,15.375 333.955,15.100 333.900 C 14.825 333.845,14.649 334.038,14.710 334.330 C 14.770 334.621,14.656 334.758,14.455 334.634 C 14.255 334.510,13.845 334.711,13.545 335.081 C 13.076 335.660,13.084 335.704,13.600 335.400 C 14.116 335.096,14.124 335.140,13.655 335.719 C 13.355 336.089,12.905 336.274,12.655 336.131 C 12.405 335.989,12.333 336.019,12.497 336.199 C 12.660 336.379,12.577 336.787,12.312 337.106 C 12.048 337.425,11.629 338.071,11.383 338.543 C 11.136 339.014,10.724 339.355,10.467 339.300 C 10.210 339.245,10.045 339.425,10.100 339.700 C 10.155 339.975,9.986 340.159,9.725 340.108 C 8.753 339.921,10.400 344.390,13.507 350.376 C 25.415 373.316,45.912 388.764,71.400 394.010 C 84.944 396.798,97.548 397.152,182.000 397.118 C 234.571 397.097,232.781 397.168,230.971 395.168 C 230.656 394.820,230.524 394.409,230.677 394.256 C 231.047 393.886,231.206 392.749,230.858 392.964 C 230.709 393.056,230.382 392.697,230.131 392.166 C 229.849 391.569,229.821 391.111,230.057 390.965 C 230.289 390.821,230.255 390.507,229.970 390.164 C 229.713 389.854,229.636 389.600,229.800 389.600 C 229.964 389.600,229.874 389.330,229.600 389.000 C 229.326 388.670,229.236 388.400,229.400 388.400 C 229.564 388.400,229.451 388.095,229.149 387.723 C 228.756 387.239,228.745 387.134,229.110 387.353 C 229.390 387.521,229.251 387.003,228.800 386.200 C 228.349 385.397,228.135 384.836,228.323 384.953 C 228.512 385.069,228.667 384.911,228.667 384.600 C 228.667 384.289,228.559 384.102,228.427 384.183 C 228.295 384.265,227.982 383.897,227.731 383.365 C 227.480 382.834,227.408 382.481,227.571 382.582 C 227.733 382.683,227.867 382.511,227.867 382.200 C 227.867 381.889,227.759 381.702,227.627 381.783 C 227.495 381.865,227.182 381.497,226.931 380.965 C 226.680 380.434,226.608 380.081,226.771 380.182 C 226.933 380.283,227.067 380.111,227.067 379.800 C 227.067 379.489,226.959 379.302,226.827 379.383 C 226.695 379.465,226.382 379.097,226.131 378.565 C 225.880 378.034,225.842 377.703,226.047 377.829 C 226.252 377.956,226.051 377.403,225.600 376.600 C 225.148 375.796,225.009 375.273,225.290 375.435 C 225.571 375.597,225.350 375.221,224.800 374.600 C 224.250 373.979,224.029 373.603,224.310 373.765 C 224.591 373.927,224.452 373.404,224.000 372.600 C 223.548 371.796,223.409 371.273,223.690 371.435 C 223.971 371.597,223.796 371.285,223.303 370.742 C 222.580 369.946,222.502 369.650,222.903 369.219 C 223.299 368.791,223.299 368.740,222.900 368.965 C 222.461 369.213,222.205 368.561,222.340 367.538 C 222.359 367.394,222.065 367.034,221.687 366.738 C 221.053 366.241,221.046 366.262,221.600 367.000 C 222.157 367.743,222.150 367.761,221.495 367.247 C 220.915 366.792,220.880 366.583,221.295 366.070 C 221.573 365.727,221.617 365.556,221.393 365.689 C 221.170 365.823,220.782 365.497,220.531 364.965 C 220.187 364.236,220.188 364.067,220.537 364.276 C 220.792 364.429,220.755 364.251,220.455 363.881 C 220.155 363.511,219.705 363.331,219.455 363.481 C 219.205 363.631,219.270 363.414,219.600 363.000 C 219.930 362.586,220.017 362.356,219.793 362.489 C 219.570 362.623,219.182 362.297,218.931 361.765 C 218.587 361.036,218.588 360.867,218.937 361.076 C 219.192 361.229,219.155 361.051,218.855 360.681 C 218.555 360.311,218.105 360.131,217.855 360.281 C 217.605 360.431,217.670 360.214,218.000 359.800 C 218.350 359.361,218.391 359.172,218.100 359.347 C 217.658 359.612,217.403 358.972,217.540 357.938 C 217.559 357.794,217.265 357.434,216.887 357.138 C 216.253 356.641,216.246 356.662,216.800 357.400 C 217.357 358.143,217.350 358.161,216.695 357.647 C 216.115 357.192,216.080 356.983,216.495 356.470 C 216.892 355.979,216.893 355.910,216.500 356.147 C 216.207 356.323,216.000 356.241,216.000 355.949 C 216.000 355.676,215.595 355.006,215.100 354.461 C 214.605 353.917,214.470 353.625,214.800 353.812 C 215.316 354.106,215.324 354.059,214.855 353.481 C 214.555 353.111,214.105 352.931,213.855 353.081 C 213.605 353.231,213.670 353.014,214.000 352.600 C 214.330 352.186,214.395 351.969,214.145 352.119 C 213.895 352.269,213.445 352.089,213.145 351.719 C 212.676 351.140,212.684 351.095,213.200 351.392 C 213.575 351.608,213.514 351.412,213.038 350.869 C 212.619 350.391,212.428 350.000,212.613 350.000 C 212.798 350.000,212.463 349.493,211.869 348.872 C 211.275 348.252,210.881 347.622,210.994 347.472 C 211.107 347.323,211.081 347.289,210.936 347.398 C 210.790 347.506,210.470 347.191,210.224 346.698 L 209.777 345.800 188.789 345.546 C 145.102 345.016,137.211 344.740,126.800 343.373 C 99.342 339.768,77.609 325.458,65.828 303.227 C 63.745 299.296,62.703 298.471,61.560 299.848 M259.700 318.276 C 260.085 318.376,260.715 318.376,261.100 318.276 C 261.485 318.175,261.170 318.093,260.400 318.093 C 259.630 318.093,259.315 318.175,259.700 318.276 M250.500 318.676 C 250.885 318.776,251.515 318.776,251.900 318.676 C 252.285 318.575,251.970 318.493,251.200 318.493 C 250.430 318.493,250.115 318.575,250.500 318.676 M209.100 319.100 C 213.775 319.164,221.425 319.164,226.100 319.100 C 230.775 319.036,226.950 318.983,217.600 318.983 C 208.250 318.983,204.425 319.036,209.100 319.100 M236.707 319.090 C 237.426 319.179,238.506 319.177,239.107 319.086 C 239.708 318.995,239.120 318.922,237.800 318.924 C 236.480 318.926,235.988 319.001,236.707 319.090 M250.100 345.087 C 250.705 345.178,251.695 345.178,252.300 345.087 C 252.905 344.995,252.410 344.920,251.200 344.920 C 249.990 344.920,249.495 344.995,250.100 345.087 M226.100 345.499 C 229.125 345.567,234.075 345.567,237.100 345.499 C 240.125 345.431,237.650 345.375,231.600 345.375 C 225.550 345.375,223.075 345.431,226.100 345.499 " stroke="none" fill="#fcbf51" fill-rule="evenodd"></path><path id="path3" d="M286.100 3.076 C 286.485 3.176,287.115 3.176,287.500 3.076 C 287.885 2.975,287.570 2.893,286.800 2.893 C 286.030 2.893,285.715 2.975,286.100 3.076 M290.300 3.089 C 291.015 3.178,292.185 3.178,292.900 3.089 C 293.615 3.001,293.030 2.928,291.600 2.928 C 290.170 2.928,289.585 3.001,290.300 3.089 M308.505 3.487 C 309.114 3.579,310.014 3.577,310.505 3.482 C 310.997 3.387,310.500 3.311,309.400 3.314 C 308.300 3.317,307.897 3.395,308.505 3.487 M336.800 8.200 C 337.570 8.497,338.470 8.739,338.800 8.739 C 339.130 8.739,338.770 8.497,338.000 8.200 C 337.230 7.903,336.330 7.661,336.000 7.661 C 335.670 7.661,336.030 7.903,336.800 8.200 M339.600 8.924 C 339.600 9.022,340.713 9.519,342.072 10.027 C 343.432 10.536,344.331 11.023,344.070 11.110 C 343.809 11.197,343.700 11.437,343.827 11.644 C 343.955 11.851,343.911 11.994,343.730 11.963 C 342.949 11.827,341.447 12.082,341.917 12.270 C 342.826 12.635,341.623 13.599,340.251 13.606 C 339.296 13.611,339.142 13.704,339.600 14.000 C 340.109 14.329,340.090 14.389,339.476 14.394 C 339.078 14.397,338.867 14.584,339.006 14.810 C 339.145 15.035,339.111 15.194,338.930 15.163 C 337.747 14.957,336.639 15.237,337.200 15.600 C 337.671 15.905,337.574 15.989,336.749 15.994 C 335.623 16.000,334.615 16.862,335.103 17.401 C 335.267 17.581,335.195 17.611,334.945 17.469 C 334.695 17.326,334.268 17.477,333.996 17.804 C 333.724 18.132,333.063 18.400,332.527 18.400 C 331.980 18.400,331.661 18.575,331.800 18.800 C 331.936 19.020,331.756 19.200,331.400 19.200 C 331.044 19.200,330.867 19.384,331.006 19.610 C 331.145 19.835,331.111 19.994,330.930 19.963 C 329.747 19.757,328.639 20.037,329.200 20.400 C 329.670 20.704,329.569 20.789,328.734 20.794 C 328.073 20.798,327.237 21.256,326.535 22.000 C 325.791 22.788,324.991 23.211,324.201 23.232 C 323.541 23.249,323.238 23.358,323.528 23.474 C 324.199 23.742,322.251 24.800,321.088 24.800 C 320.636 24.800,320.384 24.917,320.527 25.061 C 320.844 25.377,318.968 26.398,318.054 26.406 C 317.486 26.411,317.479 26.463,318.000 26.800 C 318.469 27.103,318.366 27.189,317.524 27.194 C 316.932 27.197,316.336 27.380,316.200 27.600 C 316.064 27.820,315.558 28.003,315.076 28.006 C 314.364 28.011,314.312 28.085,314.800 28.400 C 315.273 28.706,315.184 28.789,314.375 28.794 C 313.764 28.798,312.885 29.285,312.200 30.000 C 311.456 30.776,310.653 31.200,309.925 31.200 C 309.306 31.200,308.800 31.380,308.800 31.600 C 308.800 31.820,308.305 32.013,307.700 32.028 C 306.725 32.053,306.691 32.095,307.400 32.400 C 308.104 32.702,308.065 32.747,307.076 32.772 C 306.333 32.790,306.049 32.956,306.238 33.262 C 306.404 33.530,306.349 33.616,306.107 33.466 C 305.878 33.325,305.468 33.477,305.196 33.804 C 304.924 34.132,304.184 34.400,303.551 34.400 C 302.918 34.400,302.400 34.580,302.400 34.800 C 302.400 35.020,301.905 35.213,301.300 35.228 C 300.325 35.253,300.291 35.295,301.000 35.600 C 301.704 35.902,301.665 35.947,300.676 35.972 C 299.933 35.990,299.649 36.156,299.838 36.462 C 300.004 36.730,299.949 36.816,299.707 36.666 C 299.478 36.525,299.068 36.677,298.796 37.004 C 298.524 37.332,297.863 37.600,297.327 37.600 C 296.764 37.600,296.460 37.773,296.606 38.010 C 296.745 38.235,296.711 38.394,296.530 38.363 C 295.294 38.148,293.846 38.476,294.600 38.800 C 295.304 39.102,295.265 39.147,294.276 39.172 C 293.533 39.190,293.249 39.356,293.438 39.662 C 293.604 39.930,293.549 40.016,293.307 39.866 C 293.078 39.725,292.668 39.877,292.396 40.204 C 292.124 40.532,291.384 40.800,290.751 40.800 C 290.118 40.800,289.600 40.980,289.600 41.200 C 289.600 41.420,289.105 41.613,288.500 41.628 C 287.525 41.653,287.491 41.695,288.200 42.000 C 288.941 42.318,288.928 42.346,288.026 42.372 C 287.490 42.387,286.606 42.805,286.061 43.300 C 285.517 43.795,285.201 43.975,285.359 43.700 C 285.539 43.387,285.405 43.200,285.000 43.200 C 284.644 43.200,284.464 43.380,284.600 43.600 C 284.746 43.836,284.303 44.003,283.524 44.006 C 282.522 44.011,282.346 44.107,282.800 44.400 C 283.269 44.703,283.166 44.789,282.324 44.794 C 281.732 44.797,281.136 44.980,281.000 45.200 C 280.864 45.420,280.358 45.603,279.876 45.606 C 279.164 45.611,279.112 45.685,279.600 46.000 C 280.069 46.303,279.966 46.389,279.124 46.394 C 278.532 46.397,277.936 46.580,277.800 46.800 C 277.664 47.020,277.083 47.200,276.510 47.200 C 275.936 47.200,275.584 47.317,275.727 47.461 C 276.075 47.809,274.122 48.800,273.088 48.800 C 272.636 48.800,272.384 48.917,272.527 49.061 C 272.841 49.374,270.967 50.400,270.080 50.400 C 269.734 50.400,269.006 50.805,268.461 51.300 C 267.917 51.795,267.601 51.975,267.759 51.700 C 267.939 51.387,267.805 51.200,267.400 51.200 C 267.044 51.200,266.864 51.380,267.000 51.600 C 267.146 51.836,266.703 52.003,265.924 52.006 C 264.922 52.011,264.746 52.107,265.200 52.400 C 265.669 52.703,265.566 52.789,264.724 52.794 C 264.132 52.797,263.536 52.980,263.400 53.200 C 263.264 53.420,262.803 53.600,262.376 53.600 C 261.949 53.600,261.600 53.759,261.600 53.953 C 261.600 54.148,261.240 54.401,260.800 54.516 C 258.824 55.033,260.384 55.499,264.900 55.741 C 303.988 57.839,332.519 80.287,341.232 115.800 C 342.572 121.261,343.792 129.390,344.412 137.000 C 344.989 144.071,345.640 206.340,345.325 224.363 C 345.128 235.674,345.179 238.860,345.553 238.629 C 346.116 238.281,347.294 239.124,346.972 239.645 C 346.851 239.840,346.954 240.000,347.200 240.000 C 347.446 240.000,347.536 240.180,347.400 240.400 C 347.264 240.620,347.354 240.800,347.600 240.800 C 347.846 240.800,347.936 240.980,347.800 241.200 C 347.664 241.420,347.844 241.600,348.200 241.600 C 348.556 241.600,348.736 241.780,348.600 242.000 C 348.464 242.220,348.644 242.400,349.000 242.400 C 349.356 242.400,349.545 242.565,349.420 242.768 C 349.295 242.970,349.463 243.406,349.793 243.736 C 350.247 244.190,350.272 244.384,349.896 244.536 C 349.613 244.651,349.710 244.750,350.124 244.768 C 350.522 244.786,350.736 244.980,350.600 245.200 C 350.464 245.420,350.554 245.600,350.800 245.600 C 351.046 245.600,351.136 245.780,351.000 246.000 C 350.864 246.220,351.044 246.400,351.400 246.400 C 351.756 246.400,351.936 246.580,351.800 246.800 C 351.664 247.020,351.878 247.214,352.276 247.232 C 352.724 247.251,352.803 247.342,352.484 247.470 C 352.109 247.621,352.197 247.877,352.800 248.400 C 353.403 248.923,353.491 249.179,353.116 249.330 C 352.821 249.448,352.942 249.553,353.400 249.575 C 354.066 249.606,354.099 249.677,353.600 250.000 C 353.087 250.331,353.102 250.389,353.700 250.394 C 354.085 250.397,354.355 250.625,354.300 250.900 C 354.245 251.175,354.395 251.365,354.633 251.322 C 354.872 251.279,355.097 251.504,355.133 251.822 C 355.170 252.140,355.230 252.670,355.267 253.000 C 355.303 253.330,355.584 253.600,355.890 253.600 C 356.197 253.600,356.336 253.780,356.200 254.000 C 356.064 254.220,356.154 254.400,356.400 254.400 C 356.646 254.400,356.736 254.580,356.600 254.800 C 356.464 255.020,356.644 255.200,357.000 255.200 C 357.356 255.200,357.549 255.360,357.428 255.555 C 357.307 255.750,357.475 256.130,357.800 256.400 C 358.125 256.670,358.293 257.050,358.172 257.245 C 358.051 257.440,358.188 257.603,358.476 257.606 C 358.857 257.611,358.836 257.718,358.400 258.000 C 357.887 258.331,357.902 258.389,358.500 258.394 C 358.885 258.397,359.155 258.625,359.100 258.900 C 359.045 259.175,359.195 259.365,359.433 259.322 C 359.672 259.279,359.897 259.504,359.933 259.822 C 359.970 260.140,360.030 260.670,360.067 261.000 C 360.103 261.330,360.294 261.600,360.490 261.600 C 360.687 261.600,360.736 261.780,360.600 262.000 C 360.464 262.220,360.644 262.400,361.000 262.400 C 361.356 262.400,361.545 262.565,361.420 262.768 C 361.295 262.970,361.463 263.406,361.793 263.736 C 362.247 264.190,362.272 264.384,361.896 264.536 C 361.623 264.647,361.850 264.754,362.400 264.775 C 363.197 264.805,363.278 264.891,362.800 265.200 C 362.364 265.482,362.343 265.589,362.724 265.594 C 363.012 265.597,363.136 265.780,363.000 266.000 C 362.864 266.220,363.044 266.400,363.400 266.400 C 363.756 266.400,363.945 266.565,363.820 266.768 C 363.695 266.970,363.863 267.406,364.193 267.736 C 364.647 268.190,364.672 268.384,364.296 268.536 C 364.023 268.647,364.160 268.754,364.600 268.775 C 365.266 268.806,365.299 268.877,364.800 269.200 C 364.291 269.529,364.310 269.589,364.924 269.594 C 365.322 269.597,365.549 269.760,365.428 269.955 C 365.307 270.150,365.485 270.539,365.823 270.819 C 366.315 271.227,366.334 271.395,365.919 271.659 C 365.546 271.895,365.626 271.991,366.200 272.000 C 366.864 272.010,366.898 272.078,366.400 272.400 C 365.891 272.729,365.910 272.789,366.524 272.794 C 366.922 272.797,367.149 272.960,367.028 273.155 C 366.907 273.350,367.085 273.739,367.423 274.019 C 367.915 274.427,367.934 274.595,367.519 274.859 C 367.146 275.095,367.226 275.191,367.800 275.200 C 368.464 275.210,368.498 275.278,368.000 275.600 C 367.491 275.929,367.510 275.989,368.124 275.994 C 368.522 275.997,368.749 276.160,368.628 276.355 C 368.507 276.550,368.675 276.930,369.000 277.200 C 369.325 277.470,369.493 277.850,369.372 278.045 C 369.251 278.240,369.388 278.403,369.676 278.406 C 370.057 278.411,370.036 278.518,369.600 278.800 C 369.091 279.129,369.110 279.189,369.724 279.194 C 370.122 279.197,370.345 279.365,370.220 279.568 C 370.095 279.770,370.263 280.206,370.593 280.536 C 371.047 280.990,371.072 281.184,370.696 281.336 C 370.423 281.447,370.560 281.554,371.000 281.575 C 371.666 281.606,371.699 281.677,371.200 282.000 C 370.691 282.329,370.710 282.389,371.324 282.394 C 371.722 282.397,371.945 282.565,371.820 282.768 C 371.695 282.970,371.863 283.406,372.193 283.736 C 372.647 284.190,372.672 284.384,372.296 284.536 C 371.919 284.689,371.925 284.744,372.324 284.768 C 372.612 284.786,372.736 284.980,372.600 285.200 C 372.464 285.420,372.644 285.600,373.000 285.600 C 373.356 285.600,373.545 285.765,373.420 285.968 C 373.295 286.170,373.463 286.606,373.793 286.936 C 374.247 287.390,374.272 287.584,373.896 287.736 C 373.519 287.889,373.525 287.944,373.924 287.968 C 374.212 287.986,374.336 288.180,374.200 288.400 C 374.064 288.620,374.278 288.803,374.676 288.806 C 375.290 288.811,375.309 288.871,374.800 289.200 C 374.267 289.545,374.267 289.589,374.800 289.600 C 375.333 289.611,375.333 289.655,374.800 290.000 C 374.291 290.329,374.310 290.389,374.924 290.394 C 375.322 290.397,375.536 290.580,375.400 290.800 C 375.264 291.020,375.313 291.200,375.510 291.200 C 375.706 291.200,375.897 291.470,375.933 291.800 C 375.970 292.130,376.030 292.670,376.067 293.000 C 376.103 293.330,376.294 293.600,376.490 293.600 C 376.687 293.600,376.749 293.760,376.628 293.955 C 376.507 294.150,376.675 294.530,377.000 294.800 C 377.325 295.070,377.493 295.450,377.372 295.645 C 377.251 295.840,377.388 296.003,377.676 296.006 C 378.057 296.011,378.036 296.118,377.600 296.400 C 377.091 296.729,377.110 296.789,377.724 296.794 C 378.122 296.797,378.345 296.965,378.220 297.168 C 378.095 297.370,378.263 297.806,378.593 298.136 C 379.047 298.590,379.072 298.784,378.696 298.936 C 378.319 299.089,378.325 299.144,378.724 299.168 C 379.012 299.186,379.145 299.365,379.020 299.568 C 378.895 299.770,379.063 300.206,379.393 300.536 C 379.847 300.990,379.872 301.184,379.496 301.336 C 379.119 301.489,379.125 301.544,379.524 301.568 C 379.812 301.586,379.936 301.780,379.800 302.000 C 379.664 302.220,379.823 302.400,380.153 302.400 C 380.539 302.400,380.699 302.687,380.600 303.200 C 380.515 303.640,380.661 304.003,380.923 304.006 C 381.210 304.010,381.162 304.166,380.800 304.400 C 380.291 304.729,380.310 304.789,380.924 304.794 C 381.322 304.797,381.545 304.965,381.420 305.168 C 381.295 305.370,381.477 305.820,381.825 306.168 C 382.298 306.641,382.324 306.802,381.929 306.806 C 381.607 306.810,381.556 306.927,381.800 307.106 C 382.206 307.404,382.489 308.191,382.518 309.100 C 382.526 309.375,382.694 309.600,382.890 309.600 C 383.087 309.600,383.149 309.760,383.028 309.955 C 382.907 310.150,383.085 310.539,383.423 310.819 C 383.915 311.227,383.934 311.395,383.519 311.659 C 383.095 311.927,383.096 311.989,383.524 311.994 C 383.812 311.997,383.936 312.180,383.800 312.400 C 383.664 312.620,383.878 312.803,384.276 312.806 C 384.682 312.810,384.824 312.941,384.600 313.106 C 384.049 313.511,383.912 314.400,384.400 314.400 C 384.620 314.400,384.755 314.625,384.700 314.900 C 384.645 315.175,384.814 315.359,385.075 315.308 C 385.352 315.255,385.487 315.548,385.398 316.008 C 385.315 316.444,385.461 316.803,385.723 316.806 C 386.010 316.810,385.962 316.966,385.600 317.200 C 385.074 317.540,385.078 317.589,385.633 317.594 C 386.332 317.601,386.529 318.796,385.833 318.806 C 385.595 318.809,385.640 318.965,385.934 319.151 C 386.228 319.337,386.471 319.649,386.474 319.845 C 386.477 320.040,386.631 320.159,386.815 320.108 C 387.000 320.058,387.082 320.373,386.998 320.808 C 386.915 321.244,387.061 321.603,387.323 321.606 C 387.610 321.610,387.562 321.766,387.200 322.000 C 386.702 322.322,386.736 322.390,387.400 322.400 C 388.064 322.410,388.098 322.478,387.600 322.800 C 387.067 323.145,387.067 323.189,387.600 323.200 C 388.133 323.211,388.133 323.255,387.600 323.600 C 387.106 323.919,387.100 323.989,387.567 323.994 C 387.878 323.997,388.013 324.120,387.866 324.268 C 387.719 324.415,387.897 324.865,388.261 325.268 C 388.788 325.850,388.809 326.001,388.362 326.006 C 388.026 326.010,387.961 326.130,388.200 326.306 C 388.606 326.604,388.889 327.391,388.918 328.300 C 388.926 328.575,389.113 328.800,389.333 328.800 C 389.553 328.800,389.613 328.920,389.466 329.068 C 389.319 329.215,389.497 329.665,389.861 330.068 C 390.388 330.650,390.409 330.801,389.962 330.806 C 389.626 330.810,389.561 330.930,389.800 331.106 C 390.206 331.404,390.489 332.191,390.518 333.100 C 390.526 333.375,390.653 333.600,390.800 333.600 C 390.947 333.600,391.097 333.870,391.133 334.200 C 391.170 334.530,391.230 335.070,391.267 335.400 C 391.303 335.730,391.641 336.000,392.018 336.000 C 392.805 336.000,393.804 332.437,395.157 324.800 C 397.057 314.073,397.000 317.969,397.000 199.400 L 397.000 87.400 396.079 80.694 C 392.101 51.725,378.259 29.644,355.600 16.121 C 349.866 12.699,339.600 8.081,339.600 8.924 M166.100 54.687 C 166.705 54.778,167.695 54.778,168.300 54.687 C 168.905 54.595,168.410 54.520,167.200 54.520 C 165.990 54.520,165.495 54.595,166.100 54.687 M234.482 54.696 C 235.958 54.773,238.478 54.773,240.082 54.697 C 241.687 54.621,240.480 54.558,237.400 54.558 C 234.320 54.557,233.007 54.619,234.482 54.696 M251.900 55.089 C 252.615 55.178,253.785 55.178,254.500 55.089 C 255.215 55.001,254.630 54.928,253.200 54.928 C 251.770 54.928,251.185 55.001,251.900 55.089 M157.000 81.200 C 158.540 81.342,159.260 81.492,158.600 81.532 C 157.940 81.572,156.899 81.866,156.287 82.186 C 155.675 82.505,155.280 82.594,155.410 82.383 C 155.541 82.172,155.457 82.000,155.224 82.000 C 154.991 82.000,154.800 82.150,154.800 82.334 C 154.800 82.518,154.054 82.698,153.142 82.734 C 152.230 82.770,151.240 83.001,150.942 83.248 C 150.644 83.496,150.400 83.564,150.400 83.400 C 150.400 83.236,150.095 83.349,149.723 83.651 C 149.140 84.124,149.094 84.117,149.392 83.600 C 149.598 83.243,149.358 83.324,148.800 83.800 C 148.242 84.276,148.002 84.357,148.208 84.000 C 148.500 83.493,148.454 83.481,147.912 83.919 C 147.460 84.286,147.192 84.310,147.000 84.000 C 146.830 83.726,146.555 83.699,146.264 83.929 C 146.009 84.132,145.486 84.246,145.102 84.184 C 144.717 84.122,144.285 84.263,144.140 84.497 C 143.971 84.771,144.078 84.807,144.438 84.598 C 144.771 84.405,144.864 84.420,144.667 84.636 C 144.483 84.836,143.763 85.008,143.067 85.018 C 142.360 85.028,141.839 85.233,141.888 85.481 C 141.936 85.725,141.666 85.875,141.288 85.814 C 140.909 85.753,140.357 85.897,140.060 86.134 C 139.354 86.697,138.458 86.818,138.191 86.385 C 138.074 86.196,138.340 86.111,138.781 86.196 C 139.222 86.281,139.670 86.210,139.777 86.038 C 139.883 85.866,139.482 85.759,138.885 85.799 C 138.288 85.840,137.845 86.083,137.900 86.338 C 137.964 86.631,137.522 86.765,136.700 86.701 C 135.909 86.640,135.433 86.776,135.483 87.050 C 135.533 87.317,135.089 87.459,134.391 87.399 C 133.745 87.344,133.025 87.528,132.793 87.808 C 132.561 88.088,132.038 88.230,131.630 88.124 C 131.223 88.017,130.769 88.126,130.622 88.365 C 130.474 88.604,130.048 88.797,129.676 88.794 C 129.093 88.789,129.083 88.734,129.600 88.400 C 129.930 88.187,130.003 88.009,129.762 88.006 C 129.521 88.003,128.999 88.359,128.601 88.799 C 128.108 89.343,127.730 89.473,127.410 89.208 C 127.100 88.951,126.761 88.985,126.412 89.310 C 125.986 89.704,125.948 89.683,126.218 89.200 C 126.485 88.722,126.436 88.691,125.977 89.046 C 125.660 89.292,124.860 89.609,124.200 89.751 C 123.540 89.892,122.556 90.107,122.012 90.228 C 121.469 90.349,120.760 90.662,120.436 90.924 C 119.955 91.312,119.912 91.289,120.200 90.800 C 120.484 90.318,120.440 90.290,119.977 90.657 C 119.660 90.908,118.676 91.195,117.792 91.294 C 116.907 91.393,115.782 91.689,115.292 91.951 C 114.801 92.213,114.400 92.327,114.400 92.204 C 114.400 92.080,113.860 92.259,113.200 92.600 C 112.361 93.034,112.000 93.078,112.000 92.748 C 112.000 92.466,111.684 92.562,111.215 92.987 C 110.783 93.377,110.175 93.599,109.865 93.480 C 109.554 93.361,108.872 93.477,108.350 93.739 C 107.827 94.001,106.770 94.273,106.000 94.344 C 105.230 94.416,104.540 94.637,104.467 94.837 C 104.393 95.037,104.158 95.200,103.943 95.200 C 103.728 95.200,103.688 94.975,103.853 94.700 C 104.088 94.308,104.026 94.303,103.564 94.676 C 103.240 94.938,102.502 95.238,101.923 95.343 C 101.344 95.448,100.449 95.755,99.935 96.025 L 99.000 96.516 99.754 95.558 C 100.169 95.031,98.729 96.416,96.554 98.635 C 86.973 108.413,82.638 120.992,81.610 142.000 C 81.105 152.325,80.876 161.470,81.195 158.600 C 81.342 157.280,81.493 156.324,81.531 156.476 C 81.569 156.628,82.082 156.502,82.671 156.197 C 83.261 155.891,83.891 155.732,84.071 155.844 C 84.252 155.956,84.400 155.902,84.401 155.724 C 84.401 155.546,85.060 155.353,85.866 155.295 C 86.671 155.237,87.526 155.044,87.765 154.866 C 88.004 154.687,89.010 154.492,89.999 154.433 C 90.989 154.373,91.979 154.209,92.199 154.068 C 92.420 153.928,93.095 153.787,93.700 153.756 C 94.305 153.725,94.890 153.655,95.000 153.600 C 95.110 153.545,95.380 153.455,95.600 153.400 C 95.820 153.345,96.045 153.260,96.100 153.210 C 96.266 153.062,98.537 152.777,99.500 152.784 C 99.995 152.788,100.400 152.658,100.400 152.496 C 100.400 152.333,101.255 152.157,102.300 152.105 C 104.047 152.018,105.800 151.761,105.800 151.591 C 105.800 151.456,108.213 151.150,109.861 151.075 C 110.775 151.034,111.431 150.850,111.318 150.667 C 111.205 150.485,111.447 150.370,111.856 150.414 C 112.265 150.457,112.690 150.458,112.800 150.416 C 113.015 150.335,114.564 150.038,115.690 149.862 C 116.069 149.802,116.502 149.631,116.653 149.480 C 116.803 149.330,117.168 149.407,117.463 149.652 C 117.789 149.923,118.000 149.941,118.000 149.699 C 118.000 149.480,118.405 149.284,118.900 149.265 C 119.395 149.246,120.160 149.147,120.600 149.046 C 121.040 148.944,121.816 148.847,122.324 148.831 C 122.888 148.812,123.142 148.629,122.975 148.360 C 122.778 148.041,122.930 148.041,123.527 148.361 C 124.009 148.619,124.445 148.650,124.577 148.437 C 124.702 148.236,125.117 148.123,125.502 148.186 C 125.886 148.249,126.546 148.008,126.969 147.650 C 127.450 147.243,127.618 147.203,127.419 147.543 C 127.165 147.975,127.365 148.027,128.400 147.800 C 129.114 147.643,129.992 147.458,130.350 147.388 C 130.707 147.318,131.000 147.234,131.000 147.200 C 131.000 147.071,132.700 146.828,135.189 146.600 C 136.613 146.470,138.427 146.218,139.220 146.040 C 140.013 145.862,141.188 145.752,141.831 145.796 C 142.474 145.839,143.186 145.733,143.413 145.560 C 143.641 145.387,144.686 145.201,145.737 145.147 C 146.787 145.093,147.738 144.900,147.850 144.719 C 147.962 144.538,148.344 144.553,148.699 144.751 C 149.192 145.027,150.010 144.540,152.150 142.699 C 181.737 117.234,226.668 120.031,254.387 149.064 C 258.307 153.170,260.768 155.064,261.420 154.477 C 261.590 154.325,261.599 154.425,261.441 154.700 C 261.261 155.013,261.395 155.200,261.800 155.200 C 262.156 155.200,262.336 155.380,262.200 155.600 C 262.064 155.820,262.244 156.000,262.600 156.000 C 262.956 156.000,263.136 156.180,263.000 156.400 C 262.862 156.623,263.163 156.800,263.678 156.800 C 264.187 156.800,265.112 157.339,265.735 158.000 C 266.358 158.660,267.133 159.200,267.458 159.200 C 267.782 159.200,267.936 159.380,267.800 159.600 C 267.664 159.820,267.934 160.000,268.400 160.000 C 268.866 160.000,269.136 160.180,269.000 160.400 C 268.864 160.620,269.046 160.800,269.405 160.800 C 269.764 160.800,270.329 161.072,270.661 161.404 C 270.993 161.736,271.458 161.888,271.694 161.742 C 271.949 161.585,272.007 161.664,271.838 161.938 C 271.667 162.215,271.813 162.400,272.200 162.400 C 272.556 162.400,272.736 162.580,272.600 162.800 C 272.463 163.022,272.764 163.203,273.276 163.206 C 274.019 163.211,274.083 163.288,273.600 163.600 C 273.139 163.898,273.277 163.991,274.200 164.000 C 275.123 164.009,275.261 164.102,274.800 164.400 C 274.303 164.721,274.337 164.789,275.001 164.794 C 275.442 164.797,276.312 165.340,276.935 166.000 C 277.558 166.660,278.333 167.200,278.658 167.200 C 278.982 167.200,279.136 167.380,279.000 167.600 C 278.863 167.822,279.164 168.003,279.676 168.006 C 280.419 168.011,280.483 168.088,280.000 168.400 C 279.539 168.698,279.677 168.791,280.600 168.800 C 281.523 168.809,281.661 168.902,281.200 169.200 C 280.691 169.529,280.710 169.589,281.324 169.594 C 281.768 169.598,281.937 169.778,281.762 170.062 C 281.598 170.327,281.651 170.416,281.887 170.270 C 282.112 170.131,282.703 170.369,283.200 170.800 C 283.697 171.231,284.288 171.469,284.513 171.330 C 284.749 171.184,284.802 171.273,284.638 171.538 C 284.467 171.815,284.613 172.000,285.000 172.000 C 285.356 172.000,285.536 172.180,285.400 172.400 C 285.264 172.620,285.444 172.800,285.800 172.800 C 286.156 172.800,286.336 172.980,286.200 173.200 C 286.064 173.420,286.244 173.600,286.600 173.600 C 286.956 173.600,287.136 173.780,287.000 174.000 C 286.863 174.222,287.164 174.403,287.676 174.406 C 288.419 174.411,288.483 174.488,288.000 174.800 C 287.539 175.098,287.677 175.191,288.600 175.200 C 289.523 175.209,289.661 175.302,289.200 175.600 C 288.724 175.908,288.807 175.990,289.600 176.000 C 290.393 176.010,290.476 176.092,290.000 176.400 C 289.517 176.712,289.581 176.789,290.324 176.794 C 290.836 176.797,291.137 176.978,291.000 177.200 C 290.864 177.420,290.989 177.600,291.278 177.600 C 291.566 177.600,292.312 178.140,292.935 178.800 C 293.558 179.460,294.368 180.003,294.734 180.006 C 295.258 180.011,295.285 180.085,294.860 180.355 C 294.456 180.610,294.626 180.833,295.531 181.233 C 296.197 181.528,296.655 181.912,296.548 182.085 C 296.440 182.258,296.644 182.400,297.000 182.400 C 297.356 182.400,297.536 182.580,297.400 182.800 C 297.264 183.020,297.444 183.200,297.800 183.200 C 298.156 183.200,298.336 183.380,298.200 183.600 C 298.063 183.822,298.364 184.003,298.876 184.006 C 299.619 184.011,299.683 184.088,299.200 184.400 C 298.687 184.731,298.702 184.789,299.300 184.794 C 299.685 184.797,300.000 184.980,300.000 185.200 C 300.000 185.420,300.315 185.603,300.700 185.606 C 301.298 185.611,301.313 185.669,300.800 186.000 C 300.317 186.312,300.381 186.389,301.124 186.394 C 301.636 186.397,301.937 186.578,301.800 186.800 C 301.664 187.020,301.878 187.203,302.276 187.206 C 302.890 187.211,302.909 187.271,302.400 187.600 C 301.939 187.898,302.077 187.991,303.000 188.000 C 303.923 188.009,304.061 188.102,303.600 188.400 C 303.091 188.729,303.110 188.789,303.724 188.794 C 304.122 188.797,304.336 188.980,304.200 189.200 C 304.063 189.422,304.364 189.603,304.876 189.606 C 305.619 189.611,305.683 189.688,305.200 190.000 C 304.691 190.329,304.710 190.389,305.324 190.394 C 305.722 190.397,305.936 190.580,305.800 190.800 C 305.663 191.022,305.964 191.203,306.476 191.206 C 307.219 191.211,307.283 191.288,306.800 191.600 C 306.291 191.929,306.310 191.989,306.924 191.994 C 307.322 191.997,307.536 192.180,307.400 192.400 C 307.263 192.622,307.564 192.803,308.076 192.806 C 308.819 192.811,308.883 192.888,308.400 193.200 C 307.891 193.529,307.910 193.589,308.524 193.594 C 308.922 193.597,309.136 193.780,309.000 194.000 C 308.863 194.222,309.164 194.403,309.676 194.406 C 310.419 194.411,310.483 194.488,310.000 194.800 C 309.491 195.129,309.510 195.189,310.124 195.194 C 310.522 195.197,310.736 195.380,310.600 195.600 C 310.463 195.822,310.764 196.003,311.276 196.006 C 312.019 196.011,312.083 196.088,311.600 196.400 C 311.091 196.729,311.110 196.789,311.724 196.794 C 312.122 196.797,312.336 196.980,312.200 197.200 C 312.063 197.422,312.364 197.603,312.876 197.606 C 313.619 197.611,313.683 197.688,313.200 198.000 C 312.691 198.329,312.710 198.389,313.324 198.394 C 313.722 198.397,313.936 198.580,313.800 198.800 C 313.663 199.022,313.964 199.203,314.476 199.206 C 315.219 199.211,315.283 199.288,314.800 199.600 C 314.291 199.929,314.310 199.989,314.924 199.994 C 315.322 199.997,315.536 200.180,315.400 200.400 C 315.263 200.622,315.564 200.803,316.076 200.806 C 316.819 200.811,316.883 200.888,316.400 201.200 C 315.902 201.522,315.936 201.590,316.600 201.600 C 317.264 201.610,317.298 201.678,316.800 202.000 C 316.317 202.312,316.381 202.389,317.124 202.394 C 317.636 202.397,317.937 202.578,317.800 202.800 C 317.664 203.020,317.878 203.203,318.276 203.206 C 318.890 203.211,318.909 203.271,318.400 203.600 C 317.897 203.925,317.923 203.989,318.560 203.994 C 319.907 204.005,319.111 145.515,317.580 132.000 C 315.026 109.447,303.899 93.646,285.593 86.576 C 276.802 83.181,268.289 81.928,249.200 81.220 C 237.134 80.773,152.175 80.754,157.000 81.200 M144.500 81.487 C 145.105 81.578,146.095 81.578,146.700 81.487 C 147.305 81.395,146.810 81.320,145.600 81.320 C 144.390 81.320,143.895 81.395,144.500 81.487 M136.500 81.876 C 136.885 81.976,137.515 81.976,137.900 81.876 C 138.285 81.775,137.970 81.693,137.200 81.693 C 136.430 81.693,136.115 81.775,136.500 81.876 M2.893 138.051 C 2.814 169.437,2.886 175.173,3.361 175.568 C 3.755 175.894,3.965 175.904,4.067 175.599 C 4.147 175.360,4.614 175.134,5.106 175.097 C 5.598 175.060,6.000 174.911,6.000 174.765 C 6.000 174.619,6.470 174.500,7.045 174.500 C 7.621 174.500,8.226 174.282,8.390 174.016 C 8.555 173.750,8.806 173.555,8.948 173.583 C 9.090 173.612,9.790 173.527,10.503 173.394 C 11.216 173.262,12.160 173.088,12.600 173.007 C 13.040 172.927,13.445 172.825,13.500 172.781 C 13.555 172.736,13.780 172.655,14.000 172.600 C 14.220 172.545,14.445 172.464,14.500 172.420 C 14.555 172.376,15.036 172.260,15.569 172.162 C 16.101 172.064,16.811 171.763,17.145 171.492 C 17.612 171.115,17.686 171.113,17.462 171.486 C 17.259 171.824,17.599 171.792,18.585 171.380 C 19.363 171.055,20.000 170.904,20.000 171.044 C 20.000 171.184,20.237 171.101,20.527 170.861 C 20.816 170.621,21.640 170.379,22.357 170.325 C 23.074 170.270,23.748 170.085,23.854 169.913 C 23.960 169.741,24.667 169.600,25.424 169.600 C 26.181 169.600,26.800 169.420,26.800 169.200 C 26.800 168.980,27.441 168.800,28.224 168.800 C 29.246 168.800,29.568 168.659,29.365 168.300 C 29.139 167.900,29.190 167.900,29.621 168.300 C 29.918 168.575,30.349 168.797,30.580 168.794 C 30.811 168.791,30.730 168.613,30.400 168.400 C 29.928 168.095,30.035 168.000,30.900 167.956 C 31.986 167.901,32.610 167.795,33.000 167.600 C 33.110 167.545,33.365 167.477,33.567 167.450 C 33.768 167.422,34.056 167.277,34.206 167.128 C 34.356 166.978,34.731 166.952,35.039 167.070 C 35.348 167.189,35.600 167.102,35.600 166.878 C 35.600 166.654,35.915 166.519,36.300 166.578 C 36.685 166.637,37.675 166.449,38.500 166.160 C 39.325 165.872,40.000 165.740,40.000 165.867 C 40.000 165.994,40.305 165.851,40.677 165.549 C 41.261 165.075,41.305 165.082,41.000 165.600 C 40.715 166.083,40.758 166.110,41.223 165.739 C 41.540 165.485,42.340 165.216,43.000 165.140 C 43.660 165.065,44.295 164.876,44.412 164.720 C 44.529 164.564,45.294 164.392,46.112 164.337 C 46.930 164.282,47.600 164.116,47.600 163.968 C 47.600 163.821,48.070 163.700,48.645 163.700 C 49.221 163.700,49.848 163.452,50.039 163.150 C 50.327 162.696,50.390 162.705,50.400 163.200 C 50.407 163.561,50.529 163.637,50.706 163.391 C 50.868 163.167,51.630 162.924,52.400 162.851 C 53.170 162.779,53.922 162.523,54.071 162.283 C 54.220 162.042,54.415 162.555,54.504 163.423 C 54.593 164.290,54.696 162.233,54.733 158.851 C 54.984 135.851,56.655 121.389,60.389 109.902 C 61.229 107.319,61.710 105.336,61.458 105.496 C 61.206 105.657,60.713 105.791,60.361 105.794 C 60.010 105.797,59.391 106.070,58.985 106.400 C 58.408 106.869,58.320 106.877,58.585 106.438 C 58.837 106.020,58.780 105.966,58.362 106.227 C 58.053 106.420,57.561 106.614,57.269 106.658 C 56.977 106.702,56.437 106.874,56.069 107.041 C 55.701 107.207,54.920 107.366,54.334 107.395 C 53.747 107.423,52.947 107.706,52.557 108.023 C 51.934 108.529,51.888 108.526,52.182 108.000 C 52.452 107.517,52.414 107.496,51.988 107.890 C 51.570 108.278,51.332 108.278,50.853 107.890 C 50.372 107.501,50.308 107.503,50.547 107.900 C 50.738 108.218,50.611 108.400,50.200 108.400 C 49.844 108.400,49.645 108.550,49.759 108.733 C 49.872 108.917,49.711 109.067,49.400 109.067 C 49.089 109.067,48.909 108.947,49.000 108.800 C 49.091 108.653,48.911 108.533,48.600 108.533 C 48.289 108.533,48.128 108.683,48.241 108.867 C 48.355 109.050,48.167 109.222,47.824 109.250 C 46.844 109.329,46.637 109.389,46.038 109.768 C 45.622 110.032,45.559 109.978,45.797 109.562 C 46.056 109.107,46.014 109.096,45.579 109.500 C 45.282 109.775,44.615 110.000,44.096 110.000 C 43.577 110.000,43.245 110.150,43.359 110.333 C 43.472 110.517,43.311 110.667,43.000 110.667 C 42.689 110.667,42.509 110.547,42.600 110.400 C 42.691 110.253,42.511 110.133,42.200 110.133 C 41.889 110.133,41.737 110.298,41.861 110.499 C 41.986 110.700,41.753 110.830,41.344 110.786 C 39.838 110.627,39.152 110.799,39.439 111.263 C 39.634 111.579,39.456 111.656,38.877 111.504 C 38.395 111.378,37.831 111.522,37.569 111.837 C 37.316 112.142,36.905 112.263,36.655 112.107 C 35.958 111.671,35.169 111.625,35.422 112.035 C 35.546 112.236,35.367 112.422,35.024 112.450 C 34.044 112.529,33.837 112.589,33.238 112.968 C 32.848 113.215,32.765 113.180,32.968 112.852 C 33.128 112.593,32.633 112.732,31.868 113.162 C 31.103 113.592,30.364 113.831,30.227 113.693 C 29.783 113.250,28.786 113.254,29.061 113.698 C 29.231 113.973,29.018 114.046,28.463 113.901 C 27.989 113.777,27.483 113.866,27.339 114.099 C 27.173 114.367,27.270 114.404,27.600 114.200 C 27.954 113.981,28.027 114.032,27.826 114.358 C 27.597 114.729,27.382 114.720,26.888 114.319 C 26.359 113.891,26.303 113.893,26.567 114.333 C 26.797 114.715,26.668 114.828,26.105 114.733 C 25.675 114.660,24.991 114.870,24.585 115.200 C 24.008 115.669,23.920 115.677,24.185 115.238 C 24.437 114.820,24.380 114.766,23.962 115.027 C 23.653 115.219,23.040 115.441,22.600 115.520 C 21.128 115.783,21.003 115.821,20.438 116.173 C 20.023 116.432,19.960 116.377,20.197 115.962 C 20.456 115.507,20.414 115.496,19.979 115.900 C 19.682 116.175,19.015 116.400,18.496 116.400 C 17.977 116.400,17.642 116.544,17.750 116.720 C 17.859 116.895,17.285 117.027,16.474 117.012 C 15.663 116.997,14.654 117.258,14.231 117.592 C 13.636 118.063,13.537 118.073,13.793 117.638 C 14.038 117.221,13.979 117.167,13.562 117.427 C 13.253 117.619,12.640 117.841,12.200 117.920 C 11.074 118.121,10.217 118.325,10.100 118.419 C 10.045 118.464,9.668 118.522,9.261 118.550 C 8.855 118.578,8.191 118.870,7.785 119.200 C 7.208 119.669,7.120 119.677,7.385 119.238 C 7.637 118.820,7.580 118.766,7.162 119.027 C 6.853 119.219,6.240 119.441,5.800 119.520 C 4.338 119.781,4.203 119.820,3.707 120.130 C 3.323 120.371,3.189 118.297,3.100 110.719 C 3.037 105.374,2.943 117.673,2.893 138.051 M280.880 105.252 C 297.135 108.719,300.235 130.355,285.547 137.815 C 267.999 146.728,251.456 124.064,265.371 110.176 C 269.753 105.803,275.263 104.054,280.880 105.252 M318.931 235.800 C 318.933 237.340,319.005 237.921,319.092 237.091 C 319.179 236.261,319.177 235.001,319.089 234.291 C 319.000 233.581,318.929 234.260,318.931 235.800 M344.909 249.200 C 344.909 250.190,344.987 250.595,345.082 250.100 C 345.178 249.605,345.178 248.795,345.082 248.300 C 344.987 247.805,344.909 248.210,344.909 249.200 M344.520 259.200 C 344.520 260.410,344.595 260.905,344.687 260.300 C 344.778 259.695,344.778 258.705,344.687 258.100 C 344.595 257.495,344.520 257.990,344.520 259.200 " stroke="none" fill="#bc39ab" fill-rule="evenodd"></path><path id="path4" d="M147.836 144.742 C 147.732 144.910,146.787 145.093,145.737 145.147 C 144.686 145.201,143.641 145.387,143.413 145.560 C 143.186 145.733,142.474 145.839,141.831 145.796 C 141.188 145.752,140.013 145.862,139.220 146.040 C 138.427 146.218,136.613 146.470,135.189 146.600 C 132.700 146.828,131.000 147.071,131.000 147.200 C 131.000 147.234,130.707 147.318,130.350 147.388 C 129.992 147.458,129.114 147.643,128.400 147.800 C 127.365 148.027,127.165 147.975,127.419 147.543 C 127.618 147.203,127.450 147.243,126.969 147.650 C 126.546 148.008,125.886 148.249,125.502 148.186 C 125.117 148.123,124.702 148.236,124.577 148.437 C 124.445 148.650,124.009 148.619,123.527 148.361 C 122.930 148.041,122.778 148.041,122.975 148.360 C 123.142 148.629,122.888 148.812,122.324 148.831 C 121.816 148.847,121.040 148.944,120.600 149.046 C 120.160 149.147,119.395 149.246,118.900 149.265 C 118.405 149.284,118.000 149.480,118.000 149.699 C 118.000 149.941,117.789 149.923,117.463 149.652 C 117.168 149.407,116.803 149.330,116.653 149.480 C 116.502 149.631,115.979 149.816,115.490 149.892 C 114.321 150.074,113.050 150.322,112.800 150.416 C 112.690 150.458,112.265 150.457,111.856 150.414 C 111.447 150.370,111.205 150.485,111.318 150.667 C 111.431 150.850,110.775 151.034,109.861 151.075 C 108.213 151.150,105.800 151.456,105.800 151.591 C 105.800 151.761,104.047 152.018,102.300 152.105 C 101.255 152.157,100.400 152.333,100.400 152.496 C 100.400 152.658,99.995 152.788,99.500 152.784 C 98.537 152.777,96.266 153.062,96.100 153.210 C 96.045 153.260,95.820 153.345,95.600 153.400 C 95.380 153.455,95.110 153.545,95.000 153.600 C 94.890 153.655,94.305 153.725,93.700 153.756 C 93.095 153.787,92.420 153.928,92.199 154.068 C 91.979 154.209,90.989 154.373,89.999 154.433 C 89.010 154.492,88.004 154.687,87.765 154.866 C 87.526 155.044,86.671 155.237,85.866 155.295 C 85.060 155.353,84.401 155.546,84.401 155.724 C 84.400 155.902,84.252 155.956,84.071 155.844 C 83.891 155.732,83.255 155.894,82.658 156.204 C 81.908 156.593,81.657 156.617,81.846 156.283 C 82.025 155.964,81.928 155.976,81.559 156.320 C 80.771 157.054,80.739 245.051,81.523 256.800 C 82.469 270.988,84.028 279.147,87.228 286.667 C 89.098 291.060,89.569 291.902,90.312 292.188 C 90.635 292.312,90.731 292.212,90.559 291.934 C 90.366 291.622,90.455 291.588,90.838 291.827 C 91.602 292.304,92.452 292.407,92.195 291.993 C 92.081 291.807,92.157 291.550,92.366 291.421 C 92.574 291.292,92.863 291.379,93.008 291.613 C 93.164 291.865,93.461 291.897,93.736 291.690 C 93.991 291.498,95.428 291.361,96.929 291.386 C 98.430 291.410,99.762 291.261,99.891 291.053 C 100.026 290.834,99.904 290.812,99.600 291.000 C 99.292 291.191,99.174 291.166,99.313 290.940 C 99.588 290.496,102.772 290.478,103.472 290.917 C 103.732 291.080,104.033 291.070,104.141 290.895 C 104.496 290.320,111.027 290.558,111.767 291.173 C 112.333 291.642,112.425 291.644,112.323 291.186 C 112.174 290.521,113.945 290.358,114.746 290.963 C 115.462 291.503,117.244 291.595,116.923 291.076 C 116.767 290.823,116.883 290.807,117.238 291.032 C 117.547 291.228,118.627 291.391,119.639 291.394 C 120.650 291.397,121.759 291.634,122.103 291.919 C 122.585 292.320,122.797 292.328,123.026 291.958 C 123.208 291.663,123.155 291.581,122.889 291.745 C 122.651 291.892,122.352 291.846,122.226 291.642 C 121.882 291.086,123.015 291.350,123.836 292.018 C 124.468 292.530,124.511 292.528,124.200 292.000 C 123.919 291.523,123.965 291.489,124.423 291.833 C 124.740 292.072,125.684 292.239,126.521 292.206 C 127.357 292.172,128.150 292.319,128.283 292.534 C 128.426 292.766,128.312 292.793,128.000 292.600 C 127.689 292.408,127.574 292.434,127.716 292.664 C 127.848 292.877,129.035 293.029,130.355 293.001 C 131.674 292.973,132.662 293.100,132.549 293.282 C 132.437 293.464,132.149 293.492,131.911 293.345 C 131.672 293.197,131.586 293.253,131.719 293.469 C 131.853 293.685,132.879 293.834,134.000 293.800 C 135.121 293.766,136.147 293.915,136.281 294.131 C 136.426 294.366,136.314 294.394,136.000 294.200 C 135.669 293.996,135.573 294.033,135.740 294.303 C 135.885 294.537,136.317 294.678,136.702 294.616 C 137.086 294.554,137.660 294.705,137.977 294.951 C 138.363 295.252,138.468 295.257,138.294 294.967 C 138.152 294.728,138.287 294.533,138.595 294.533 C 138.903 294.533,139.121 294.720,139.078 294.948 C 139.035 295.177,139.360 295.375,139.800 295.388 C 140.240 295.401,140.853 295.572,141.162 295.768 C 141.581 296.034,141.638 295.981,141.385 295.562 C 141.120 295.123,141.208 295.131,141.785 295.600 C 142.191 295.930,142.828 296.200,143.200 296.200 C 143.572 296.200,144.209 296.470,144.615 296.800 C 145.272 297.333,145.314 297.333,145.000 296.800 C 144.695 296.282,144.739 296.275,145.323 296.749 C 145.695 297.051,146.000 297.164,146.000 297.000 C 146.000 296.836,146.298 296.949,146.661 297.251 C 147.025 297.553,147.628 297.800,148.000 297.800 C 148.372 297.800,148.930 298.002,149.239 298.249 C 149.547 298.495,150.109 298.647,150.488 298.586 C 150.866 298.525,151.136 298.620,151.088 298.797 C 151.039 298.975,151.116 299.093,151.258 299.060 C 151.400 299.027,151.850 299.287,152.258 299.639 C 152.666 299.990,153.501 300.242,154.114 300.200 C 154.727 300.157,155.340 300.302,155.476 300.523 C 155.626 300.766,155.518 300.797,155.200 300.600 C 154.864 300.392,154.773 300.433,154.947 300.714 C 155.095 300.954,155.573 301.082,156.008 300.998 C 156.490 300.906,156.800 301.063,156.800 301.400 C 156.800 301.737,157.110 301.894,157.592 301.802 C 158.027 301.718,158.505 301.846,158.653 302.086 C 158.829 302.371,158.728 302.410,158.362 302.198 C 158.029 302.005,157.936 302.020,158.133 302.236 C 158.317 302.436,158.857 302.608,159.333 302.618 C 159.810 302.628,160.163 302.829,160.118 303.065 C 160.073 303.300,160.433 303.472,160.918 303.446 C 161.403 303.421,161.759 303.614,161.708 303.875 C 161.655 304.152,161.948 304.287,162.408 304.198 C 162.890 304.106,163.200 304.263,163.200 304.600 C 163.200 304.937,163.510 305.094,163.992 305.002 C 164.427 304.918,164.905 305.046,165.053 305.286 C 165.227 305.567,165.136 305.608,164.800 305.400 C 164.464 305.192,164.373 305.233,164.547 305.514 C 164.695 305.754,165.173 305.882,165.608 305.798 C 166.090 305.706,166.400 305.863,166.400 306.200 C 166.400 306.537,166.710 306.694,167.192 306.602 C 167.652 306.513,167.945 306.648,167.892 306.925 C 167.841 307.189,168.201 307.379,168.706 307.352 C 169.417 307.314,169.517 307.418,169.171 307.835 C 168.823 308.254,168.905 308.334,169.556 308.208 C 170.011 308.121,170.342 308.173,170.292 308.325 C 170.241 308.476,170.316 308.600,170.458 308.600 C 170.600 308.600,171.050 308.902,171.458 309.271 C 171.866 309.641,172.380 310.001,172.600 310.071 C 172.820 310.142,172.959 310.324,172.908 310.475 C 172.858 310.627,173.169 310.683,173.600 310.600 C 174.031 310.517,174.342 310.573,174.292 310.725 C 174.241 310.876,174.352 311.027,174.537 311.061 C 174.723 311.095,175.426 311.635,176.099 312.261 C 176.773 312.887,177.171 313.130,176.985 312.800 C 176.694 312.284,176.741 312.276,177.319 312.745 C 177.689 313.045,177.898 313.441,177.785 313.624 C 177.671 313.808,177.940 313.889,178.381 313.804 C 178.850 313.713,179.145 313.847,179.092 314.125 C 179.041 314.386,179.225 314.555,179.500 314.500 C 179.775 314.445,179.955 314.617,179.900 314.882 C 179.845 315.147,180.070 315.380,180.400 315.400 C 180.730 315.420,180.940 315.698,180.867 316.018 C 180.793 316.338,180.871 316.462,181.040 316.293 C 181.209 316.124,181.943 316.563,182.671 317.269 C 184.397 318.941,181.214 318.796,216.000 318.795 C 255.064 318.794,267.194 318.236,276.600 316.006 C 300.587 310.320,313.707 295.161,317.429 268.832 C 318.928 258.226,319.864 204.005,318.548 203.994 C 317.919 203.989,317.895 203.926,318.400 203.600 C 318.909 203.271,318.890 203.211,318.276 203.206 C 317.878 203.203,317.664 203.020,317.800 202.800 C 317.937 202.578,317.636 202.397,317.124 202.394 C 316.381 202.389,316.317 202.312,316.800 202.000 C 317.298 201.678,317.264 201.610,316.600 201.600 C 315.936 201.590,315.902 201.522,316.400 201.200 C 316.883 200.888,316.819 200.811,316.076 200.806 C 315.564 200.803,315.263 200.622,315.400 200.400 C 315.536 200.180,315.322 199.997,314.924 199.994 C 314.310 199.989,314.291 199.929,314.800 199.600 C 315.283 199.288,315.219 199.211,314.476 199.206 C 313.964 199.203,313.663 199.022,313.800 198.800 C 313.936 198.580,313.722 198.397,313.324 198.394 C 312.710 198.389,312.691 198.329,313.200 198.000 C 313.683 197.688,313.619 197.611,312.876 197.606 C 312.364 197.603,312.063 197.422,312.200 197.200 C 312.336 196.980,312.122 196.797,311.724 196.794 C 311.110 196.789,311.091 196.729,311.600 196.400 C 312.083 196.088,312.019 196.011,311.276 196.006 C 310.764 196.003,310.463 195.822,310.600 195.600 C 310.736 195.380,310.522 195.197,310.124 195.194 C 309.510 195.189,309.491 195.129,310.000 194.800 C 310.483 194.488,310.419 194.411,309.676 194.406 C 309.164 194.403,308.863 194.222,309.000 194.000 C 309.136 193.780,308.922 193.597,308.524 193.594 C 307.910 193.589,307.891 193.529,308.400 193.200 C 308.883 192.888,308.819 192.811,308.076 192.806 C 307.564 192.803,307.263 192.622,307.400 192.400 C 307.536 192.180,307.322 191.997,306.924 191.994 C 306.310 191.989,306.291 191.929,306.800 191.600 C 307.283 191.288,307.219 191.211,306.476 191.206 C 305.964 191.203,305.663 191.022,305.800 190.800 C 305.936 190.580,305.722 190.397,305.324 190.394 C 304.710 190.389,304.691 190.329,305.200 190.000 C 305.683 189.688,305.619 189.611,304.876 189.606 C 304.364 189.603,304.063 189.422,304.200 189.200 C 304.336 188.980,304.122 188.797,303.724 188.794 C 303.110 188.789,303.091 188.729,303.600 188.400 C 304.061 188.102,303.923 188.009,303.000 188.000 C 302.077 187.991,301.939 187.898,302.400 187.600 C 302.909 187.271,302.890 187.211,302.276 187.206 C 301.878 187.203,301.664 187.020,301.800 186.800 C 301.937 186.578,301.636 186.397,301.124 186.394 C 300.381 186.389,300.317 186.312,300.800 186.000 C 301.313 185.669,301.298 185.611,300.700 185.606 C 300.315 185.603,300.000 185.420,300.000 185.200 C 300.000 184.980,299.685 184.797,299.300 184.794 C 298.702 184.789,298.687 184.731,299.200 184.400 C 299.683 184.088,299.619 184.011,298.876 184.006 C 298.364 184.003,298.063 183.822,298.200 183.600 C 298.336 183.380,298.156 183.200,297.800 183.200 C 297.444 183.200,297.264 183.020,297.400 182.800 C 297.536 182.580,297.356 182.400,297.000 182.400 C 296.644 182.400,296.440 182.258,296.548 182.085 C 296.655 181.912,296.197 181.528,295.531 181.233 C 294.626 180.833,294.456 180.610,294.860 180.355 C 295.285 180.085,295.258 180.011,294.734 180.006 C 294.368 180.003,293.558 179.460,292.935 178.800 C 292.312 178.140,291.566 177.600,291.278 177.600 C 290.989 177.600,290.864 177.420,291.000 177.200 C 291.137 176.978,290.836 176.797,290.324 176.794 C 289.581 176.789,289.517 176.712,290.000 176.400 C 290.476 176.092,290.393 176.010,289.600 176.000 C 288.807 175.990,288.724 175.908,289.200 175.600 C 289.661 175.302,289.523 175.209,288.600 175.200 C 287.677 175.191,287.539 175.098,288.000 174.800 C 288.483 174.488,288.419 174.411,287.676 174.406 C 287.164 174.403,286.863 174.222,287.000 174.000 C 287.136 173.780,286.956 173.600,286.600 173.600 C 286.244 173.600,286.064 173.420,286.200 173.200 C 286.336 172.980,286.156 172.800,285.800 172.800 C 285.444 172.800,285.264 172.620,285.400 172.400 C 285.536 172.180,285.356 172.000,285.000 172.000 C 284.613 172.000,284.467 171.815,284.638 171.538 C 284.802 171.273,284.749 171.184,284.513 171.330 C 284.288 171.469,283.697 171.231,283.200 170.800 C 282.703 170.369,282.112 170.131,281.887 170.270 C 281.651 170.416,281.598 170.327,281.762 170.062 C 281.937 169.778,281.768 169.598,281.324 169.594 C 280.710 169.589,280.691 169.529,281.200 169.200 C 281.661 168.902,281.523 168.809,280.600 168.800 C 279.677 168.791,279.539 168.698,280.000 168.400 C 280.483 168.088,280.419 168.011,279.676 168.006 C 279.164 168.003,278.863 167.822,279.000 167.600 C 279.136 167.380,278.956 167.200,278.600 167.200 C 278.213 167.200,278.067 167.015,278.238 166.738 C 278.412 166.456,278.348 166.385,278.073 166.555 C 277.826 166.708,277.226 166.375,276.739 165.816 C 276.253 165.257,275.483 164.797,275.028 164.794 C 274.347 164.789,274.306 164.719,274.800 164.400 C 275.261 164.102,275.123 164.009,274.200 164.000 C 273.277 163.991,273.139 163.898,273.600 163.600 C 274.083 163.288,274.019 163.211,273.276 163.206 C 272.764 163.203,272.463 163.022,272.600 162.800 C 272.736 162.580,272.556 162.400,272.200 162.400 C 271.813 162.400,271.667 162.215,271.838 161.938 C 272.007 161.664,271.949 161.585,271.694 161.742 C 271.458 161.888,270.993 161.736,270.661 161.404 C 270.329 161.072,269.764 160.800,269.405 160.800 C 269.046 160.800,268.864 160.620,269.000 160.400 C 269.136 160.180,268.866 160.000,268.400 160.000 C 267.934 160.000,267.664 159.820,267.800 159.600 C 267.936 159.380,267.756 159.200,267.400 159.200 C 267.013 159.200,266.867 159.015,267.038 158.738 C 267.212 158.456,267.148 158.385,266.873 158.555 C 266.626 158.708,266.026 158.375,265.539 157.816 C 265.053 157.257,264.228 156.800,263.704 156.800 C 263.172 156.800,262.862 156.624,263.000 156.400 C 263.136 156.180,262.956 156.000,262.600 156.000 C 262.244 156.000,262.064 155.820,262.200 155.600 C 262.336 155.380,262.156 155.200,261.800 155.200 C 261.413 155.200,261.267 155.015,261.438 154.738 C 261.600 154.476,261.549 154.384,261.321 154.525 C 261.099 154.662,260.576 154.516,260.159 154.200 C 259.742 153.884,259.220 153.622,259.000 153.619 C 258.740 153.615,258.742 153.715,259.007 153.906 C 261.261 155.534,268.379 168.984,270.700 176.000 C 291.657 239.353,226.221 296.421,166.600 266.789 C 121.359 244.303,111.226 184.324,146.490 147.750 C 148.537 145.628,149.083 144.841,148.632 144.668 C 148.298 144.540,147.940 144.573,147.836 144.742 M193.400 152.055 C 156.192 156.755,138.858 200.841,162.525 230.581 C 182.481 255.659,222.268 253.779,240.142 226.914 C 263.203 192.254,234.834 146.821,193.400 152.055 M54.000 162.263 C 53.890 162.518,53.170 162.784,52.400 162.854 C 51.630 162.925,50.868 163.167,50.706 163.391 C 50.529 163.637,50.407 163.561,50.400 163.200 C 50.390 162.705,50.327 162.696,50.039 163.150 C 49.848 163.453,49.221 163.700,48.645 163.700 C 48.070 163.700,47.600 163.821,47.600 163.968 C 47.600 164.116,46.930 164.282,46.112 164.337 C 45.294 164.392,44.529 164.564,44.412 164.720 C 44.295 164.876,43.660 165.065,43.000 165.140 C 42.340 165.216,41.540 165.485,41.223 165.739 C 40.758 166.110,40.715 166.083,41.000 165.600 C 41.305 165.082,41.261 165.075,40.677 165.549 C 40.305 165.851,40.000 165.994,40.000 165.867 C 40.000 165.740,39.325 165.872,38.500 166.160 C 37.675 166.449,36.685 166.637,36.300 166.578 C 35.915 166.519,35.600 166.654,35.600 166.878 C 35.600 167.102,35.348 167.189,35.039 167.070 C 34.731 166.952,34.356 166.978,34.206 167.128 C 34.056 167.277,33.768 167.423,33.567 167.450 C 33.365 167.478,33.155 167.536,33.100 167.581 C 32.934 167.714,31.468 167.975,30.328 168.073 C 29.738 168.124,29.344 168.309,29.451 168.483 C 29.559 168.657,29.007 168.800,28.224 168.800 C 27.441 168.800,26.800 168.980,26.800 169.200 C 26.800 169.420,26.181 169.600,25.424 169.600 C 24.667 169.600,23.960 169.741,23.854 169.913 C 23.748 170.085,23.082 170.269,22.375 170.323 C 21.668 170.377,20.889 170.546,20.645 170.699 C 20.210 170.971,19.824 171.075,18.200 171.356 C 17.760 171.432,17.099 171.622,16.731 171.778 C 16.363 171.934,15.733 172.124,15.331 172.200 C 14.929 172.276,14.555 172.375,14.500 172.419 C 14.445 172.464,14.220 172.545,14.000 172.600 C 13.780 172.655,13.555 172.736,13.500 172.781 C 13.445 172.825,13.040 172.927,12.600 173.007 C 12.160 173.088,11.170 173.271,10.400 173.414 C 9.630 173.557,8.930 173.642,8.845 173.603 C 8.759 173.564,8.555 173.750,8.390 174.016 C 8.226 174.282,7.621 174.500,7.045 174.500 C 6.470 174.500,6.000 174.619,6.000 174.765 C 6.000 174.911,5.598 175.060,5.106 175.097 C 4.614 175.134,4.147 175.360,4.067 175.599 C 3.966 175.903,3.754 175.893,3.359 175.566 C 2.724 175.039,2.604 293.793,3.225 307.600 C 3.801 320.388,7.235 338.524,9.512 340.800 C 9.843 341.130,9.994 341.187,9.850 340.928 C 9.705 340.668,9.773 340.340,10.000 340.200 C 10.227 340.060,10.307 339.773,10.177 339.562 C 10.047 339.352,10.164 339.230,10.438 339.290 C 10.711 339.351,11.145 338.996,11.403 338.502 C 11.661 338.009,12.019 337.739,12.200 337.902 C 12.380 338.066,12.406 337.987,12.258 337.728 C 12.109 337.468,12.173 337.140,12.400 337.000 C 12.627 336.860,12.692 336.549,12.545 336.311 C 12.395 336.068,12.460 335.990,12.693 336.134 C 12.922 336.275,13.355 336.089,13.655 335.719 C 14.124 335.140,14.116 335.096,13.600 335.400 C 13.084 335.704,13.076 335.660,13.545 335.081 C 13.845 334.711,14.255 334.510,14.455 334.634 C 14.656 334.758,14.770 334.621,14.710 334.330 C 14.649 334.038,14.825 333.845,15.100 333.900 C 15.375 333.955,15.555 333.775,15.500 333.500 C 15.445 333.225,15.625 333.045,15.900 333.100 C 16.175 333.155,16.355 332.975,16.300 332.700 C 16.245 332.425,16.425 332.245,16.700 332.300 C 16.975 332.355,17.155 332.175,17.100 331.900 C 17.045 331.625,17.225 331.445,17.500 331.500 C 17.775 331.555,17.955 331.375,17.900 331.100 C 17.845 330.825,18.025 330.645,18.300 330.700 C 18.575 330.755,18.755 330.575,18.700 330.300 C 18.645 330.025,18.838 329.849,19.130 329.910 C 19.421 329.970,19.560 329.859,19.439 329.663 C 19.179 329.243,20.542 327.906,20.932 328.199 C 21.080 328.310,21.110 328.280,20.999 328.132 C 20.684 327.713,22.059 326.389,22.515 326.671 C 22.740 326.810,22.810 326.740,22.671 326.515 C 22.357 326.008,23.752 324.686,24.166 325.099 C 24.331 325.265,24.407 325.130,24.333 324.800 C 24.260 324.470,24.425 324.245,24.700 324.300 C 24.975 324.355,25.155 324.175,25.100 323.900 C 25.045 323.625,25.225 323.445,25.500 323.500 C 25.775 323.555,25.955 323.375,25.900 323.100 C 25.845 322.825,26.025 322.645,26.300 322.700 C 26.575 322.755,26.755 322.575,26.700 322.300 C 26.645 322.025,26.825 321.845,27.100 321.900 C 27.375 321.955,27.555 321.775,27.500 321.500 C 27.445 321.225,27.625 321.045,27.900 321.100 C 28.175 321.155,28.355 320.983,28.300 320.718 C 28.245 320.453,28.470 320.220,28.800 320.200 C 29.130 320.180,29.355 319.947,29.300 319.682 C 29.245 319.417,29.425 319.245,29.700 319.300 C 29.975 319.355,30.140 319.130,30.067 318.800 C 29.993 318.470,30.069 318.335,30.234 318.501 C 30.400 318.666,30.884 318.486,31.310 318.101 C 31.735 317.715,32.200 317.400,32.342 317.400 C 32.484 317.400,32.555 317.265,32.500 317.100 C 32.445 316.935,32.625 316.845,32.900 316.900 C 33.175 316.955,33.359 316.786,33.308 316.525 C 33.255 316.250,33.547 316.113,34.000 316.200 C 34.453 316.287,34.745 316.150,34.692 315.875 C 34.641 315.614,34.838 315.449,35.130 315.510 C 35.421 315.570,35.560 315.459,35.439 315.263 C 35.318 315.067,35.617 314.568,36.103 314.153 C 36.975 313.410,36.979 313.410,36.408 314.200 C 36.091 314.640,36.392 314.487,37.078 313.861 C 37.764 313.235,38.477 312.722,38.663 312.721 C 38.848 312.720,38.959 312.569,38.908 312.385 C 38.858 312.200,39.169 312.117,39.600 312.200 C 40.053 312.287,40.345 312.150,40.292 311.875 C 40.241 311.614,40.425 311.445,40.700 311.500 C 40.975 311.555,41.155 311.383,41.100 311.118 C 41.045 310.853,41.270 310.620,41.600 310.600 C 41.930 310.580,42.163 310.371,42.118 310.135 C 42.073 309.900,42.433 309.728,42.918 309.754 C 43.403 309.779,43.759 309.586,43.708 309.325 C 43.655 309.050,43.947 308.913,44.400 309.000 C 44.839 309.085,45.143 308.950,45.092 308.694 C 45.041 308.442,45.270 308.220,45.600 308.200 C 45.930 308.180,46.163 307.971,46.118 307.735 C 46.073 307.500,46.433 307.328,46.918 307.354 C 47.403 307.379,47.759 307.186,47.708 306.925 C 47.655 306.650,47.947 306.513,48.400 306.600 C 48.831 306.683,49.142 306.627,49.092 306.475 C 49.041 306.324,49.116 306.200,49.258 306.200 C 49.400 306.200,49.850 305.907,50.258 305.550 C 50.666 305.192,51.309 304.951,51.688 305.013 C 52.066 305.075,52.336 304.925,52.288 304.681 C 52.239 304.436,52.470 304.220,52.800 304.200 C 53.130 304.180,53.361 303.964,53.312 303.719 C 53.264 303.475,53.534 303.325,53.912 303.387 C 54.291 303.449,54.870 303.266,55.200 302.979 C 55.530 302.692,55.980 302.426,56.200 302.389 C 56.420 302.351,56.563 302.181,56.517 302.010 C 56.471 301.840,56.958 301.745,57.600 301.800 C 58.266 301.857,58.731 301.714,58.683 301.468 C 58.637 301.231,58.977 301.028,59.439 301.018 C 59.900 301.008,60.575 300.753,60.939 300.451 C 61.302 300.149,61.600 300.042,61.600 300.213 C 61.600 300.384,61.930 300.226,62.332 299.861 C 62.735 299.497,63.214 299.334,63.396 299.499 C 63.578 299.665,63.625 299.530,63.501 299.200 C 63.376 298.870,62.637 296.967,61.858 294.970 C 55.598 278.920,54.796 269.354,54.448 206.600 C 54.312 181.960,54.110 162.008,54.000 162.263 M345.467 238.667 C 345.320 238.813,345.198 240.838,345.195 243.167 C 345.138 288.225,335.141 312.954,310.066 330.065 C 292.324 342.173,273.435 345.588,224.167 345.597 C 211.799 345.600,209.733 345.683,209.733 346.182 C 209.733 346.503,209.883 346.672,210.067 346.559 C 210.250 346.445,210.400 346.611,210.400 346.927 C 210.400 347.243,210.674 347.730,211.010 348.008 C 211.345 348.286,211.522 348.612,211.403 348.731 C 211.283 348.850,211.774 349.571,212.493 350.334 C 213.212 351.096,213.530 351.569,213.200 351.383 C 212.684 351.094,212.676 351.141,213.145 351.719 C 213.445 352.089,213.895 352.269,214.145 352.119 C 214.395 351.969,214.330 352.186,214.000 352.600 C 213.670 353.014,213.605 353.231,213.855 353.081 C 214.105 352.931,214.555 353.111,214.855 353.481 C 215.324 354.060,215.316 354.105,214.800 353.808 C 214.373 353.562,214.402 353.694,214.901 354.264 C 215.286 354.704,215.466 355.214,215.301 355.397 C 215.135 355.579,215.225 355.599,215.500 355.441 C 215.813 355.261,216.000 355.395,216.000 355.800 C 216.000 356.211,216.182 356.338,216.500 356.147 C 216.893 355.910,216.892 355.979,216.495 356.470 C 216.080 356.983,216.115 357.192,216.695 357.647 C 217.350 358.161,217.357 358.143,216.800 357.400 C 216.246 356.662,216.253 356.641,216.887 357.138 C 217.265 357.434,217.559 357.794,217.540 357.938 C 217.403 358.972,217.658 359.612,218.100 359.347 C 218.391 359.172,218.350 359.361,218.000 359.800 C 217.670 360.214,217.605 360.431,217.855 360.281 C 218.105 360.131,218.555 360.311,218.855 360.681 C 219.155 361.051,219.192 361.229,218.937 361.076 C 218.588 360.867,218.587 361.036,218.931 361.765 C 219.182 362.297,219.570 362.623,219.793 362.489 C 220.017 362.356,219.930 362.586,219.600 363.000 C 219.270 363.414,219.205 363.631,219.455 363.481 C 219.705 363.331,220.155 363.511,220.455 363.881 C 220.755 364.251,220.792 364.429,220.537 364.276 C 220.188 364.067,220.187 364.236,220.531 364.965 C 220.782 365.497,221.170 365.823,221.393 365.689 C 221.617 365.556,221.573 365.727,221.295 366.070 C 220.880 366.583,220.915 366.792,221.495 367.247 C 222.150 367.761,222.157 367.743,221.600 367.000 C 221.046 366.262,221.053 366.241,221.687 366.738 C 222.065 367.034,222.359 367.394,222.340 367.538 C 222.205 368.561,222.461 369.213,222.900 368.965 C 223.299 368.740,223.299 368.791,222.903 369.219 C 222.502 369.650,222.580 369.946,223.303 370.742 C 223.796 371.285,223.971 371.597,223.690 371.435 C 223.409 371.273,223.548 371.796,224.000 372.600 C 224.452 373.404,224.591 373.927,224.310 373.765 C 224.029 373.603,224.250 373.979,224.800 374.600 C 225.350 375.221,225.571 375.597,225.290 375.435 C 225.009 375.273,225.148 375.796,225.600 376.600 C 226.051 377.403,226.252 377.956,226.047 377.829 C 225.842 377.703,225.880 378.034,226.131 378.565 C 226.382 379.097,226.770 379.423,226.993 379.289 C 227.231 379.147,227.219 379.286,226.965 379.623 C 226.456 380.299,227.238 382.193,227.823 381.698 C 228.016 381.534,227.984 381.670,227.752 382.000 C 227.307 382.633,228.006 384.588,228.539 384.201 C 228.686 384.094,228.640 384.206,228.436 384.450 C 228.200 384.733,228.347 385.394,228.843 386.277 C 229.283 387.060,229.399 387.526,229.110 387.353 C 228.745 387.134,228.756 387.239,229.149 387.723 C 229.451 388.095,229.564 388.400,229.400 388.400 C 229.236 388.400,229.326 388.670,229.600 389.000 C 229.874 389.330,229.964 389.600,229.800 389.600 C 229.636 389.600,229.713 389.854,229.970 390.164 C 230.255 390.507,230.289 390.821,230.057 390.965 C 229.821 391.111,229.849 391.569,230.131 392.166 C 230.382 392.697,230.695 393.065,230.827 392.983 C 230.959 392.902,231.067 393.089,231.067 393.400 C 231.067 393.711,230.932 393.882,230.768 393.780 C 230.325 393.507,230.566 394.636,231.084 395.260 C 231.888 396.229,231.774 396.595,230.577 396.880 C 228.041 397.485,306.656 396.871,313.600 396.233 C 352.697 392.638,380.515 372.270,391.425 339.249 C 392.570 335.784,392.540 336.000,391.867 336.000 C 391.573 336.000,391.303 335.730,391.267 335.400 C 391.230 335.070,391.170 334.530,391.133 334.200 C 391.097 333.870,390.947 333.600,390.800 333.600 C 390.653 333.600,390.526 333.375,390.518 333.100 C 390.489 332.191,390.206 331.404,389.800 331.106 C 389.561 330.930,389.626 330.810,389.962 330.806 C 390.409 330.801,390.388 330.650,389.861 330.068 C 389.497 329.665,389.319 329.215,389.466 329.068 C 389.613 328.920,389.553 328.800,389.333 328.800 C 389.113 328.800,388.926 328.575,388.918 328.300 C 388.889 327.391,388.606 326.604,388.200 326.306 C 387.961 326.130,388.026 326.010,388.362 326.006 C 388.809 326.001,388.788 325.850,388.261 325.268 C 387.897 324.865,387.719 324.415,387.866 324.268 C 388.013 324.120,387.878 323.997,387.567 323.994 C 387.100 323.989,387.106 323.919,387.600 323.600 C 388.133 323.255,388.133 323.211,387.600 323.200 C 387.067 323.189,387.067 323.145,387.600 322.800 C 388.098 322.478,388.064 322.410,387.400 322.400 C 386.736 322.390,386.702 322.322,387.200 322.000 C 387.562 321.766,387.610 321.610,387.323 321.606 C 387.061 321.603,386.915 321.244,386.998 320.808 C 387.082 320.373,387.027 320.058,386.875 320.108 C 386.724 320.159,386.570 320.040,386.534 319.845 C 386.498 319.649,386.228 319.337,385.934 319.151 C 385.640 318.965,385.595 318.809,385.833 318.806 C 386.529 318.796,386.332 317.601,385.633 317.594 C 385.078 317.589,385.074 317.540,385.600 317.200 C 385.962 316.966,386.010 316.810,385.723 316.806 C 385.461 316.803,385.315 316.444,385.398 316.008 C 385.487 315.548,385.352 315.255,385.075 315.308 C 384.814 315.359,384.645 315.175,384.700 314.900 C 384.755 314.625,384.620 314.400,384.400 314.400 C 383.912 314.400,384.049 313.511,384.600 313.106 C 384.824 312.941,384.682 312.810,384.276 312.806 C 383.878 312.803,383.664 312.620,383.800 312.400 C 383.936 312.180,383.812 311.997,383.524 311.994 C 383.096 311.989,383.095 311.927,383.519 311.659 C 383.934 311.395,383.915 311.227,383.423 310.819 C 383.085 310.539,382.907 310.150,383.028 309.955 C 383.149 309.760,383.087 309.600,382.890 309.600 C 382.694 309.600,382.526 309.375,382.518 309.100 C 382.489 308.191,382.206 307.404,381.800 307.106 C 381.556 306.927,381.607 306.810,381.929 306.806 C 382.324 306.802,382.298 306.641,381.825 306.168 C 381.477 305.820,381.295 305.370,381.420 305.168 C 381.545 304.965,381.322 304.797,380.924 304.794 C 380.310 304.789,380.291 304.729,380.800 304.400 C 381.162 304.166,381.210 304.010,380.923 304.006 C 380.661 304.003,380.515 303.640,380.600 303.200 C 380.699 302.687,380.539 302.400,380.153 302.400 C 379.823 302.400,379.655 302.235,379.779 302.034 C 379.903 301.833,379.779 301.577,379.502 301.466 C 379.116 301.310,379.122 301.256,379.529 301.232 C 379.928 301.208,379.903 301.045,379.425 300.568 C 379.077 300.220,378.885 299.785,378.999 299.602 C 379.112 299.418,378.979 299.177,378.702 299.066 C 378.316 298.910,378.322 298.856,378.729 298.832 C 379.128 298.808,379.103 298.645,378.625 298.168 C 378.277 297.820,378.095 297.370,378.220 297.168 C 378.345 296.965,378.122 296.797,377.724 296.794 C 377.110 296.789,377.091 296.729,377.600 296.400 C 378.036 296.118,378.057 296.011,377.676 296.006 C 377.388 296.003,377.251 295.840,377.372 295.645 C 377.493 295.450,377.325 295.070,377.000 294.800 C 376.675 294.530,376.507 294.150,376.628 293.955 C 376.749 293.760,376.687 293.600,376.490 293.600 C 376.294 293.600,376.103 293.330,376.067 293.000 C 376.030 292.670,375.970 292.130,375.933 291.800 C 375.897 291.470,375.706 291.200,375.510 291.200 C 375.313 291.200,375.264 291.020,375.400 290.800 C 375.536 290.580,375.322 290.397,374.924 290.394 C 374.310 290.389,374.291 290.329,374.800 290.000 C 375.333 289.655,375.333 289.611,374.800 289.600 C 374.267 289.589,374.267 289.545,374.800 289.200 C 375.309 288.871,375.290 288.811,374.676 288.806 C 374.278 288.803,374.055 288.635,374.179 288.434 C 374.303 288.233,374.179 287.977,373.902 287.866 C 373.516 287.710,373.522 287.656,373.929 287.632 C 374.328 287.608,374.303 287.445,373.825 286.968 C 373.477 286.620,373.295 286.170,373.420 285.968 C 373.545 285.765,373.356 285.600,373.000 285.600 C 372.644 285.600,372.455 285.435,372.579 285.234 C 372.703 285.033,372.579 284.777,372.302 284.666 C 371.916 284.510,371.922 284.456,372.329 284.432 C 372.728 284.408,372.703 284.245,372.225 283.768 C 371.877 283.420,371.695 282.970,371.820 282.768 C 371.945 282.565,371.722 282.397,371.324 282.394 C 370.710 282.389,370.691 282.329,371.200 282.000 C 371.699 281.677,371.666 281.606,371.000 281.575 C 370.560 281.554,370.423 281.447,370.696 281.336 C 371.072 281.184,371.047 280.990,370.593 280.536 C 370.263 280.206,370.095 279.770,370.220 279.568 C 370.345 279.365,370.122 279.197,369.724 279.194 C 369.110 279.189,369.091 279.129,369.600 278.800 C 370.036 278.518,370.057 278.411,369.676 278.406 C 369.388 278.403,369.251 278.240,369.372 278.045 C 369.493 277.850,369.325 277.470,369.000 277.200 C 368.675 276.930,368.507 276.550,368.628 276.355 C 368.749 276.160,368.522 275.997,368.124 275.994 C 367.510 275.989,367.491 275.929,368.000 275.600 C 368.498 275.278,368.464 275.210,367.800 275.200 C 367.226 275.191,367.146 275.095,367.519 274.859 C 367.934 274.595,367.915 274.427,367.423 274.019 C 367.085 273.739,366.907 273.350,367.028 273.155 C 367.149 272.960,366.922 272.797,366.524 272.794 C 365.910 272.789,365.891 272.729,366.400 272.400 C 366.898 272.078,366.864 272.010,366.200 272.000 C 365.626 271.991,365.546 271.895,365.919 271.659 C 366.334 271.395,366.315 271.227,365.823 270.819 C 365.485 270.539,365.307 270.150,365.428 269.955 C 365.549 269.760,365.322 269.597,364.924 269.594 C 364.310 269.589,364.291 269.529,364.800 269.200 C 365.299 268.877,365.266 268.806,364.600 268.775 C 364.160 268.754,364.023 268.647,364.296 268.536 C 364.672 268.384,364.647 268.190,364.193 267.736 C 363.863 267.406,363.695 266.970,363.820 266.768 C 363.945 266.565,363.756 266.400,363.400 266.400 C 363.044 266.400,362.864 266.220,363.000 266.000 C 363.136 265.780,363.012 265.597,362.724 265.594 C 362.343 265.589,362.364 265.482,362.800 265.200 C 363.278 264.891,363.197 264.805,362.400 264.775 C 361.850 264.754,361.623 264.647,361.896 264.536 C 362.272 264.384,362.247 264.190,361.793 263.736 C 361.463 263.406,361.295 262.970,361.420 262.768 C 361.545 262.565,361.356 262.400,361.000 262.400 C 360.644 262.400,360.464 262.220,360.600 262.000 C 360.736 261.780,360.687 261.600,360.490 261.600 C 360.294 261.600,360.103 261.330,360.067 261.000 C 360.030 260.670,359.970 260.140,359.933 259.822 C 359.897 259.504,359.672 259.279,359.433 259.322 C 359.195 259.365,359.045 259.175,359.100 258.900 C 359.155 258.625,358.885 258.397,358.500 258.394 C 357.902 258.389,357.887 258.331,358.400 258.000 C 358.836 257.718,358.857 257.611,358.476 257.606 C 358.188 257.603,358.051 257.440,358.172 257.245 C 358.293 257.050,358.125 256.670,357.800 256.400 C 357.475 256.130,357.307 255.750,357.428 255.555 C 357.549 255.360,357.356 255.200,357.000 255.200 C 356.644 255.200,356.464 255.020,356.600 254.800 C 356.736 254.580,356.646 254.400,356.400 254.400 C 356.154 254.400,356.064 254.220,356.200 254.000 C 356.336 253.780,356.197 253.600,355.890 253.600 C 355.584 253.600,355.303 253.330,355.267 253.000 C 355.230 252.670,355.170 252.140,355.133 251.822 C 355.097 251.504,354.872 251.279,354.633 251.322 C 354.395 251.365,354.245 251.175,354.300 250.900 C 354.355 250.625,354.085 250.397,353.700 250.394 C 353.102 250.389,353.087 250.331,353.600 250.000 C 354.099 249.677,354.066 249.606,353.400 249.575 C 352.942 249.553,352.821 249.448,353.116 249.330 C 353.491 249.179,353.403 248.923,352.800 248.400 C 352.197 247.877,352.109 247.621,352.484 247.470 C 352.803 247.342,352.724 247.251,352.276 247.232 C 351.878 247.214,351.664 247.020,351.800 246.800 C 351.936 246.580,351.756 246.400,351.400 246.400 C 351.044 246.400,350.864 246.220,351.000 246.000 C 351.136 245.780,351.046 245.600,350.800 245.600 C 350.554 245.600,350.464 245.420,350.600 245.200 C 350.736 244.980,350.522 244.786,350.124 244.768 C 349.710 244.750,349.613 244.651,349.896 244.536 C 350.272 244.384,350.247 244.190,349.793 243.736 C 349.463 243.406,349.295 242.970,349.420 242.768 C 349.545 242.565,349.356 242.400,349.000 242.400 C 348.644 242.400,348.464 242.220,348.600 242.000 C 348.736 241.780,348.556 241.600,348.200 241.600 C 347.844 241.600,347.664 241.420,347.800 241.200 C 347.936 240.980,347.846 240.800,347.600 240.800 C 347.354 240.800,347.264 240.620,347.400 240.400 C 347.536 240.180,347.427 240.000,347.157 240.000 C 346.887 240.000,346.785 239.882,346.930 239.737 C 347.212 239.455,346.492 238.400,346.018 238.400 C 345.861 238.400,345.613 238.520,345.467 238.667 " stroke="none" fill="#f35354" fill-rule="evenodd"></path></g></svg>