<svg id="svg" version="1.1" xmlns="http://www.w3.org/2000/svg" xmlns:xlink="http://www.w3.org/1999/xlink" width="400" height="391.0204081632653" viewBox="0, 0, 400,391.0204081632653"><g id="svgg"><path id="path0" d="M72.538 0.556 C 69.112 1.206,65.225 2.467,61.840 4.025 C 60.440 4.669,59.075 5.201,58.806 5.207 C 58.537 5.213,58.317 5.376,58.317 5.568 C 58.317 5.760,58.141 5.808,57.926 5.675 C 57.710 5.542,57.534 5.630,57.534 5.871 C 57.534 6.112,57.358 6.200,57.143 6.067 C 56.928 5.933,56.751 6.022,56.751 6.262 C 56.751 6.503,56.575 6.591,56.360 6.458 C 56.145 6.325,55.969 6.370,55.969 6.558 C 55.969 6.746,55.396 7.173,54.697 7.507 C 52.545 8.533,45.213 12.988,45.075 13.354 C 45.003 13.543,44.785 13.699,44.590 13.699 C 44.395 13.699,43.926 13.948,43.547 14.253 C 43.167 14.559,40.744 16.397,38.160 18.338 C 35.577 20.279,32.935 22.363,32.290 22.970 C 31.644 23.577,29.377 25.658,27.252 27.594 C 23.854 30.691,19.967 34.920,15.190 40.714 C 13.070 43.286,12.034 44.786,9.520 48.924 C 8.278 50.969,7.168 52.730,7.055 52.838 C 6.942 52.945,6.795 53.297,6.728 53.620 C 6.661 53.943,6.176 54.864,5.651 55.667 C 5.126 56.469,4.697 57.312,4.697 57.539 C 4.697 57.766,4.272 58.790,3.752 59.815 C 0.094 67.034,-0.812 78.659,1.200 92.564 C 2.068 98.563,4.175 108.348,4.752 109.059 C 4.952 109.305,5.088 109.657,5.055 109.841 C 5.022 110.025,5.038 110.308,5.091 110.470 C 5.143 110.631,5.223 110.895,5.269 111.057 C 5.314 111.218,5.453 111.614,5.577 111.937 C 6.271 113.746,6.618 115.200,6.430 115.505 C 6.312 115.695,6.421 115.851,6.672 115.851 C 6.923 115.851,7.027 116.115,6.903 116.438 C 6.780 116.761,6.868 117.025,7.099 117.025 C 7.331 117.025,7.419 117.290,7.295 117.613 C 7.171 117.935,7.259 118.200,7.491 118.200 C 7.722 118.200,7.810 118.464,7.686 118.787 C 7.562 119.110,7.650 119.374,7.882 119.374 C 8.113 119.374,8.202 119.638,8.078 119.961 C 7.954 120.284,8.042 120.548,8.273 120.548 C 8.505 120.548,8.597 120.801,8.479 121.110 C 8.360 121.419,8.393 121.727,8.553 121.795 C 8.712 121.862,9.607 124.031,10.542 126.614 C 11.477 129.198,12.863 132.621,13.623 134.222 C 14.382 135.823,15.003 137.364,15.003 137.646 C 15.003 137.929,15.131 138.160,15.287 138.160 C 15.579 138.160,16.226 140.082,16.111 140.607 C 16.076 140.768,16.233 140.900,16.461 140.900 C 16.689 140.900,16.776 141.061,16.655 141.258 C 16.533 141.455,16.582 141.675,16.764 141.747 C 16.946 141.820,17.931 143.728,18.952 145.988 C 19.974 148.249,21.720 151.761,22.832 153.793 C 23.943 155.826,24.809 157.631,24.755 157.805 C 24.702 157.979,24.844 158.121,25.072 158.121 C 25.300 158.121,25.387 158.282,25.265 158.479 C 25.144 158.676,25.196 158.896,25.381 158.969 C 25.567 159.041,26.478 160.509,27.405 162.231 C 29.905 166.872,33.231 172.467,37.408 179.061 C 39.453 182.290,41.228 185.240,41.353 185.616 C 41.477 185.993,41.734 186.301,41.924 186.301 C 42.114 186.301,42.270 186.566,42.270 186.888 C 42.270 187.211,42.446 187.476,42.661 187.476 C 42.877 187.476,43.053 187.740,43.053 188.063 C 43.053 188.386,43.229 188.650,43.444 188.650 C 43.659 188.650,43.836 188.899,43.836 189.204 C 43.836 189.509,43.983 189.817,44.163 189.889 C 44.343 189.961,45.957 192.221,47.749 194.912 C 49.541 197.603,51.764 200.795,52.690 202.005 C 53.615 203.215,54.262 204.316,54.127 204.451 C 53.992 204.586,54.053 204.697,54.262 204.697 C 54.472 204.697,55.509 205.886,56.567 207.339 C 59.656 211.583,71.387 226.799,72.031 227.397 C 72.146 227.505,73.885 229.618,75.893 232.094 C 77.902 234.569,80.593 237.773,81.873 239.214 C 83.153 240.654,84.165 241.887,84.123 241.954 C 84.080 242.020,84.729 242.780,85.565 243.643 C 86.400 244.506,89.284 247.676,91.973 250.688 C 100.619 260.372,118.334 278.550,126.027 285.633 C 128.288 287.713,131.458 290.665,133.072 292.191 C 139.925 298.668,153.534 310.397,161.644 316.816 C 164.335 318.945,166.624 320.804,166.732 320.947 C 166.840 321.090,169.834 323.384,173.386 326.046 C 176.937 328.708,180.020 331.036,180.235 331.219 C 181.465 332.265,195.776 342.226,199.413 344.568 C 201.781 346.093,203.777 347.477,203.849 347.643 C 203.920 347.809,204.229 347.945,204.534 347.945 C 204.839 347.945,205.088 348.121,205.088 348.337 C 205.088 348.552,205.352 348.728,205.675 348.728 C 205.998 348.728,206.262 348.862,206.262 349.027 C 206.262 349.191,206.611 349.499,207.037 349.711 C 208.645 350.513,216.913 355.521,217.351 355.959 C 217.603 356.210,217.984 356.446,218.200 356.483 C 218.415 356.519,218.868 356.771,219.206 357.042 C 219.544 357.313,220.021 357.576,220.266 357.627 C 220.511 357.678,221.660 358.326,222.820 359.068 C 223.979 359.809,226.265 361.078,227.901 361.887 C 229.594 362.725,230.773 363.537,230.638 363.773 C 230.509 364.001,230.540 364.064,230.708 363.913 C 231.030 363.622,237.210 366.567,237.617 367.206 C 237.749 367.413,237.925 367.545,238.009 367.500 C 238.290 367.349,248.335 372.293,248.468 372.648 C 248.540 372.841,248.747 372.908,248.928 372.796 C 249.355 372.532,251.272 373.405,251.272 373.863 C 251.272 374.056,251.436 374.113,251.637 373.989 C 252.018 373.753,254.816 374.909,255.230 375.474 C 255.361 375.654,255.582 375.783,255.721 375.760 C 256.385 375.654,257.926 376.257,257.926 376.624 C 257.926 376.852,258.038 376.926,258.176 376.788 C 258.314 376.650,258.886 376.786,259.448 377.090 C 260.840 377.842,267.836 380.453,272.603 381.999 C 274.755 382.697,276.670 383.408,276.858 383.580 C 277.046 383.751,277.442 383.799,277.738 383.685 C 278.035 383.571,278.278 383.667,278.278 383.899 C 278.278 384.130,278.542 384.218,278.865 384.095 C 279.188 383.971,279.452 384.020,279.453 384.205 C 279.453 384.389,280.012 384.579,280.695 384.628 C 281.378 384.676,282.038 384.859,282.162 385.036 C 282.286 385.212,282.888 385.392,283.499 385.436 C 284.110 385.480,284.814 385.643,285.064 385.800 C 285.314 385.956,285.695 386.122,285.910 386.170 C 286.467 386.292,287.553 386.577,290.020 387.248 C 308.359 392.236,332.142 392.391,343.249 387.596 C 344.002 387.270,344.971 386.864,345.401 386.693 C 345.832 386.521,346.888 386.070,347.750 385.689 C 348.611 385.309,349.535 384.997,349.804 384.997 C 350.073 384.997,350.294 384.840,350.294 384.647 C 350.294 384.455,350.470 384.407,350.685 384.540 C 350.900 384.673,351.076 384.585,351.076 384.344 C 351.076 384.104,351.252 384.016,351.468 384.149 C 351.683 384.282,351.859 384.194,351.859 383.953 C 351.859 383.712,352.035 383.624,352.250 383.757 C 352.466 383.890,352.642 383.783,352.642 383.520 C 352.642 383.256,352.749 383.147,352.879 383.277 C 353.010 383.408,353.318 383.344,353.564 383.136 C 353.810 382.928,355.861 381.669,358.121 380.337 C 360.382 379.006,362.290 377.777,362.361 377.608 C 362.433 377.438,362.727 377.299,363.014 377.299 C 363.301 377.299,363.594 377.161,363.666 376.992 C 363.738 376.823,365.558 375.341,367.710 373.697 C 372.912 369.726,378.657 364.050,383.408 358.186 C 383.816 357.684,384.457 356.908,384.834 356.463 C 385.210 356.018,385.519 355.537,385.519 355.396 C 385.519 355.254,385.837 354.796,386.225 354.379 C 387.156 353.380,390.171 348.397,391.778 345.202 C 392.481 343.805,393.213 342.560,393.406 342.437 C 393.599 342.314,393.826 341.848,393.912 341.402 C 393.998 340.957,394.496 339.649,395.020 338.496 C 398.035 331.850,400.728 317.692,399.858 313.061 C 398.639 306.575,378.536 288.013,353.718 270.458 C 352.696 269.735,351.859 268.987,351.859 268.795 C 351.859 268.604,351.716 268.535,351.542 268.643 C 351.367 268.751,350.354 268.185,349.291 267.385 C 347.426 265.981,340.713 261.494,335.960 258.476 C 334.695 257.672,333.571 256.911,333.464 256.785 C 333.356 256.659,332.828 256.303,332.290 255.994 C 328.264 253.684,322.258 249.920,322.022 249.559 C 321.863 249.317,321.731 249.256,321.728 249.423 C 321.722 249.724,321.035 249.381,318.004 247.562 C 317.143 247.046,313.885 245.349,310.763 243.791 C 307.642 242.233,305.033 240.823,304.965 240.658 C 304.897 240.492,304.612 240.445,304.330 240.553 C 304.049 240.661,303.576 240.519,303.279 240.238 C 302.983 239.956,302.387 239.666,301.957 239.592 C 301.526 239.519,301.115 239.298,301.043 239.101 C 300.971 238.904,300.769 238.831,300.595 238.938 C 300.421 239.046,299.600 238.832,298.770 238.464 C 297.939 238.095,297.084 237.764,296.869 237.729 C 296.654 237.693,296.389 237.630,296.282 237.589 C 293.309 236.448,288.505 236.361,283.562 237.359 C 282.916 237.490,282.123 237.615,281.800 237.638 C 281.477 237.661,281.001 237.847,280.741 238.052 C 280.482 238.256,280.085 238.310,279.861 238.171 C 279.636 238.032,279.452 238.124,279.452 238.375 C 279.452 238.626,279.209 238.738,278.913 238.624 C 278.616 238.510,278.176 238.615,277.934 238.856 C 277.693 239.098,277.495 239.151,277.495 238.974 C 277.495 238.797,277.231 238.871,276.908 239.139 C 276.585 239.407,276.318 239.473,276.315 239.285 C 276.312 239.097,276.172 239.159,276.004 239.423 C 275.837 239.686,275.355 239.967,274.934 240.046 C 273.774 240.265,268.035 242.928,263.209 245.487 C 256.619 248.983,251.636 251.301,251.239 251.056 C 251.042 250.934,250.881 251.013,250.881 251.231 C 250.881 252.750,237.848 255.243,234.186 254.424 C 231.853 253.902,224.090 250.134,222.724 248.861 C 222.298 248.465,221.767 248.141,221.543 248.141 C 221.319 248.141,221.135 247.965,221.135 247.750 C 221.135 247.534,220.871 247.358,220.548 247.358 C 220.225 247.358,219.961 247.182,219.961 246.967 C 219.961 246.751,219.778 246.575,219.554 246.575 C 218.566 246.575,200.783 232.448,200.783 231.663 C 200.783 231.469,200.594 231.311,200.362 231.311 C 199.308 231.311,178.897 211.904,169.728 202.184 C 156.529 188.192,142.352 170.677,143.126 169.319 C 143.262 169.080,143.226 169.019,143.045 169.183 C 142.651 169.541,137.351 160.486,137.373 159.493 C 137.376 159.385,137.356 159.207,137.329 159.100 C 137.302 158.992,137.236 158.728,137.182 158.513 C 137.128 158.297,137.047 158.077,137.003 158.023 C 136.413 157.316,136.410 148.924,137.000 148.924 C 137.047 148.924,137.140 148.571,137.206 148.141 C 137.493 146.277,137.809 144.957,138.145 144.227 C 138.342 143.796,139.000 142.299,139.606 140.900 C 141.139 137.364,144.416 131.270,145.291 130.331 C 145.691 129.901,145.926 129.550,145.813 129.550 C 145.699 129.550,146.197 128.625,146.920 127.495 C 148.844 124.484,151.658 118.729,152.469 116.145 C 152.858 114.907,153.315 113.894,153.484 113.894 C 153.653 113.894,153.689 113.628,153.564 113.302 C 153.439 112.977,153.531 112.476,153.769 112.190 C 154.006 111.904,154.092 111.561,153.960 111.429 C 153.828 111.297,153.855 110.873,154.020 110.487 C 154.271 109.901,154.653 106.074,154.599 104.697 C 154.561 103.743,154.285 102.293,154.021 101.665 C 153.863 101.289,153.708 100.541,153.677 100.002 C 153.646 99.463,153.469 99.022,153.285 99.022 C 153.100 99.022,153.051 98.757,153.175 98.434 C 153.299 98.112,153.265 97.847,153.100 97.847 C 152.934 97.847,152.565 97.187,152.280 96.380 C 151.369 93.807,147.407 85.132,147.081 84.996 C 146.908 84.924,146.866 84.704,146.987 84.507 C 147.109 84.310,147.012 84.149,146.771 84.149 C 146.530 84.149,146.442 83.973,146.575 83.757 C 146.708 83.542,146.620 83.366,146.380 83.366 C 146.139 83.366,146.042 83.205,146.163 83.008 C 146.285 82.811,146.240 82.591,146.064 82.519 C 145.888 82.447,144.717 80.450,143.463 78.082 C 142.209 75.714,140.234 72.150,139.075 70.162 C 137.916 68.174,137.008 66.501,137.057 66.444 C 137.106 66.387,136.802 65.939,136.381 65.447 C 135.961 64.956,135.676 64.447,135.748 64.317 C 135.820 64.186,135.708 63.972,135.498 63.840 C 135.289 63.709,133.945 61.663,132.511 59.295 C 131.077 56.928,127.402 51.325,124.345 46.845 C 121.288 42.365,118.611 38.402,118.395 38.039 C 118.180 37.675,117.784 37.237,117.515 37.065 C 117.246 36.893,117.025 36.560,117.025 36.325 C 117.025 36.090,116.788 35.703,116.499 35.464 C 116.209 35.225,114.668 33.273,113.074 31.126 C 111.480 28.980,109.912 26.936,109.589 26.584 C 109.266 26.232,108.562 25.372,108.023 24.673 C 107.485 23.974,106.834 23.177,106.575 22.903 C 106.317 22.628,104.908 21.014,103.444 19.315 C 101.980 17.616,99.300 14.733,97.487 12.908 C 95.675 11.082,94.222 9.457,94.258 9.295 C 94.295 9.134,94.193 9.046,94.031 9.099 C 93.778 9.183,88.843 5.425,87.345 4.007 C 84.319 1.144,77.640 -0.413,72.538 0.556 M78.783 26.712 C 81.471 29.131,85.602 33.631,91.121 40.150 C 93.417 42.862,102.746 55.633,102.544 55.786 C 102.436 55.868,102.636 56.163,102.987 56.441 C 103.630 56.951,109.980 66.310,109.980 66.748 C 109.980 66.878,110.237 67.240,110.551 67.554 C 111.342 68.345,118.591 80.449,118.591 80.979 C 118.591 81.215,118.739 81.409,118.920 81.409 C 119.280 81.409,120.334 83.385,120.225 83.855 C 120.187 84.017,120.317 84.149,120.513 84.149 C 120.976 84.149,129.962 102.001,129.654 102.309 C 129.525 102.438,129.635 102.544,129.899 102.544 C 130.163 102.544,130.279 102.705,130.158 102.902 C 130.036 103.099,130.104 103.319,130.308 103.391 C 131.252 103.725,131.630 106.997,130.910 108.611 C 130.526 109.472,130.239 110.308,130.272 110.470 C 130.305 110.631,130.146 110.763,129.918 110.763 C 129.690 110.763,129.613 110.939,129.746 111.155 C 129.879 111.370,129.772 111.546,129.508 111.546 C 129.244 111.546,129.131 111.649,129.258 111.776 C 129.384 111.902,128.301 113.971,126.851 116.374 C 125.401 118.778,123.355 122.329,122.306 124.266 C 121.256 126.204,120.254 127.848,120.079 127.920 C 119.904 127.992,119.860 128.212,119.982 128.409 C 120.103 128.606,120.006 128.767,119.765 128.767 C 119.524 128.767,119.436 128.943,119.569 129.159 C 119.703 129.374,119.595 129.550,119.332 129.550 C 119.068 129.550,118.958 129.656,119.087 129.785 C 119.216 129.914,118.821 131.015,118.208 132.231 C 117.003 134.622,115.253 140.086,114.837 142.752 C 114.695 143.663,114.428 144.315,114.243 144.200 C 114.058 144.086,114.009 144.508,114.135 145.139 C 114.261 145.769,114.187 146.394,113.971 146.528 C 113.753 146.663,113.671 147.469,113.787 148.337 C 113.913 149.275,113.838 149.902,113.599 149.902 C 113.350 149.902,113.221 151.513,113.254 154.207 C 113.283 156.574,113.459 158.512,113.645 158.512 C 113.831 158.512,113.906 159.041,113.811 159.687 C 113.716 160.333,113.805 160.861,114.008 160.861 C 114.211 160.861,114.293 161.301,114.190 161.840 C 114.087 162.378,114.133 162.818,114.291 162.818 C 114.450 162.818,114.686 163.354,114.817 164.009 C 115.649 168.168,123.740 183.265,127.767 188.174 C 127.994 188.451,128.356 188.891,128.571 189.153 C 130.338 191.300,132.204 194.084,132.008 194.280 C 131.876 194.413,131.963 194.521,132.202 194.521 C 132.440 194.521,133.481 195.621,134.515 196.967 C 137.292 200.579,144.052 208.270,151.419 216.200 C 154.998 220.052,157.882 223.354,157.828 223.539 C 157.774 223.724,157.874 223.831,158.050 223.777 C 158.226 223.723,162.145 227.305,166.758 231.737 C 180.066 244.520,191.203 254.267,200.000 260.828 C 202.045 262.353,203.951 263.821,204.235 264.090 C 204.520 264.359,204.872 264.580,205.018 264.580 C 205.164 264.581,205.873 265.085,206.594 265.701 C 207.315 266.317,210.133 268.118,212.856 269.704 C 215.580 271.289,217.867 272.724,217.939 272.891 C 218.012 273.058,218.232 273.095,218.429 272.973 C 218.626 272.852,218.787 272.909,218.787 273.101 C 218.787 273.294,219.007 273.456,219.276 273.462 C 219.545 273.468,220.998 274.044,222.505 274.742 C 231.189 278.764,242.840 278.757,254.403 274.723 C 255.950 274.184,256.855 273.873,257.143 273.784 C 257.250 273.750,258.361 273.256,259.610 272.686 C 260.859 272.116,262.180 271.599,262.545 271.539 C 262.910 271.478,263.297 271.314,263.405 271.174 C 263.513 271.034,266.331 269.583,269.667 267.949 C 273.004 266.315,275.935 264.811,276.181 264.607 C 276.428 264.402,276.736 264.342,276.866 264.472 C 276.997 264.603,277.104 264.494,277.104 264.230 C 277.104 263.966,277.280 263.859,277.495 263.992 C 277.710 264.125,277.886 264.048,277.886 263.820 C 277.886 263.592,278.019 263.441,278.180 263.484 C 278.341 263.528,279.239 263.163,280.175 262.674 C 281.111 262.185,281.968 261.877,282.081 261.989 C 282.193 262.102,282.551 261.928,282.876 261.603 C 283.201 261.278,283.708 261.104,284.003 261.218 C 284.299 261.331,284.540 261.274,284.540 261.091 C 284.540 260.661,287.632 259.883,289.340 259.883 C 290.946 259.883,294.325 260.984,294.325 261.508 C 294.325 261.716,294.501 261.777,294.716 261.644 C 294.932 261.511,295.108 261.599,295.108 261.840 C 295.108 262.080,295.276 262.173,295.482 262.046 C 295.687 261.919,297.581 262.712,299.689 263.807 C 305.962 267.068,313.160 271.074,313.439 271.460 C 313.582 271.658,313.908 271.860,314.163 271.910 C 314.419 271.959,315.933 272.839,317.528 273.867 C 319.124 274.894,321.971 276.703,323.855 277.886 C 328.313 280.688,340.397 288.978,341.781 290.185 C 342.373 290.701,342.857 291.052,342.857 290.965 C 342.857 290.793,356.544 301.076,358.121 302.434 C 358.659 302.897,360.928 304.792,363.163 306.645 C 372.464 314.354,377.105 319.056,376.510 320.168 C 376.265 320.626,376.159 321.245,376.274 321.544 C 376.389 321.844,376.309 322.195,376.098 322.326 C 375.886 322.457,375.746 322.771,375.785 323.024 C 375.825 323.276,375.744 323.748,375.604 324.070 C 375.465 324.393,375.288 325.010,375.210 325.440 C 375.132 325.871,374.961 326.487,374.829 326.810 C 374.697 327.133,374.164 328.548,373.645 329.955 C 372.379 333.386,370.726 336.595,370.225 336.595 C 370.000 336.595,369.908 336.742,370.019 336.922 C 370.212 337.235,368.090 340.743,367.037 341.851 C 366.762 342.142,366.184 342.877,365.753 343.486 C 363.180 347.125,359.226 351.155,354.795 354.657 C 352.642 356.358,350.650 357.938,350.368 358.168 C 348.977 359.305,344.265 361.984,343.973 361.803 C 343.790 361.690,343.640 361.764,343.640 361.966 C 343.640 362.893,334.676 366.396,328.767 367.779 C 327.529 368.068,315.070 368.088,312.720 367.804 C 304.681 366.832,291.585 364.203,291.585 363.560 C 291.585 363.408,291.233 363.375,290.802 363.487 C 290.372 363.600,290.019 363.539,290.019 363.353 C 290.018 363.166,289.454 362.993,288.764 362.968 C 288.074 362.943,287.450 362.741,287.376 362.520 C 287.303 362.299,286.899 362.208,286.478 362.318 C 286.058 362.428,285.714 362.327,285.714 362.093 C 285.714 361.860,285.450 361.770,285.127 361.894 C 284.804 362.018,284.540 361.930,284.540 361.698 C 284.540 361.466,284.276 361.378,283.953 361.502 C 283.630 361.626,283.366 361.577,283.365 361.392 C 283.365 361.208,282.880 361.023,282.289 360.981 C 281.697 360.940,280.509 360.598,279.648 360.222 C 278.787 359.846,277.950 359.506,277.789 359.466 C 277.627 359.426,277.407 359.349,277.299 359.295 C 277.192 359.242,276.972 359.160,276.810 359.115 C 276.405 359.001,275.107 358.508,274.168 358.111 C 273.738 357.929,271.399 357.011,268.971 356.070 C 266.544 355.130,264.689 354.228,264.850 354.067 C 265.011 353.906,264.840 353.891,264.469 354.033 C 264.070 354.186,263.796 354.106,263.796 353.835 C 263.796 353.584,263.632 353.480,263.431 353.605 C 263.113 353.801,259.643 352.402,259.100 351.859 C 258.992 351.751,258.640 351.608,258.317 351.541 C 257.383 351.346,240.535 342.794,240.269 342.381 C 240.138 342.176,239.919 342.020,239.783 342.036 C 239.299 342.091,236.791 340.750,236.791 340.436 C 236.791 340.261,236.608 340.117,236.386 340.117 C 235.792 340.117,227.006 335.016,227.006 334.671 C 227.006 334.509,226.759 334.377,226.457 334.377 C 225.958 334.377,221.993 332.056,221.526 331.491 C 221.419 331.361,221.067 331.136,220.744 330.992 C 220.160 330.731,219.011 330.024,218.221 329.441 C 217.994 329.273,215.695 327.767,213.112 326.094 C 208.576 323.156,195.568 314.148,194.666 313.321 C 194.424 313.098,193.830 312.652,193.346 312.329 C 192.863 312.006,192.249 311.533,191.981 311.277 C 191.714 311.022,190.546 310.141,189.387 309.320 C 185.518 306.580,183.170 304.728,183.170 304.417 C 183.170 304.248,182.965 304.110,182.714 304.110 C 182.463 304.110,181.978 303.835,181.638 303.500 C 181.297 303.165,178.772 301.121,176.027 298.959 C 173.283 296.797,171.037 294.869,171.037 294.676 C 171.037 294.483,170.861 294.325,170.645 294.325 C 169.936 294.325,162.832 287.966,163.084 287.558 C 163.224 287.331,163.137 287.278,162.884 287.435 C 162.434 287.713,153.033 279.678,153.033 279.014 C 153.033 278.825,152.841 278.669,152.606 278.669 C 149.780 278.669,109.017 236.361,93.026 216.830 C 90.294 213.493,87.827 210.499,87.544 210.176 C 87.262 209.853,86.167 208.444,85.111 207.045 C 84.056 205.646,82.483 203.602,81.616 202.504 C 78.020 197.950,76.913 196.403,77.006 196.058 C 77.060 195.858,76.950 195.695,76.761 195.695 C 76.158 195.695,62.622 176.576,62.622 175.724 C 62.622 175.514,62.446 175.342,62.231 175.342 C 62.016 175.342,61.840 175.078,61.840 174.755 C 61.840 174.432,61.663 174.168,61.448 174.168 C 61.233 174.168,61.057 173.919,61.057 173.614 C 61.057 173.309,60.925 173.001,60.763 172.929 C 60.203 172.680,51.663 158.831,51.663 158.172 C 51.663 157.965,51.512 157.736,51.328 157.665 C 50.891 157.495,48.123 152.576,44.867 146.184 C 43.441 143.386,42.108 140.895,41.905 140.648 C 41.701 140.402,41.641 140.094,41.772 139.963 C 41.902 139.833,41.793 139.726,41.529 139.726 C 41.266 139.726,41.159 139.550,41.292 139.335 C 41.425 139.119,41.337 138.943,41.096 138.943 C 40.855 138.943,40.767 138.767,40.900 138.552 C 41.033 138.337,40.945 138.160,40.705 138.160 C 40.464 138.160,40.366 137.999,40.488 137.803 C 40.610 137.606,40.561 137.385,40.379 137.313 C 40.038 137.178,37.280 131.306,35.445 126.810 C 34.022 123.322,33.653 122.480,33.003 121.233 C 32.694 120.641,32.549 120.157,32.681 120.157 C 32.813 120.157,32.660 119.784,32.341 119.329 C 32.022 118.874,31.855 118.257,31.970 117.959 C 32.084 117.661,31.997 117.417,31.776 117.417 C 31.399 117.417,30.681 115.226,30.845 114.579 C 30.886 114.418,30.725 114.286,30.487 114.286 C 30.248 114.286,30.155 114.022,30.279 113.699 C 30.402 113.376,30.314 113.112,30.083 113.112 C 29.851 113.112,29.763 112.847,29.887 112.524 C 30.011 112.202,29.970 111.937,29.795 111.937 C 29.380 111.937,28.471 108.894,28.751 108.440 C 28.870 108.248,28.787 108.030,28.565 107.956 C 27.864 107.722,24.345 92.676,23.685 87.084 C 23.083 81.991,22.893 77.383,23.201 75.342 C 24.250 68.380,28.322 60.687,35.424 52.248 C 38.965 48.040,47.288 39.922,48.060 39.922 C 48.274 39.922,48.543 39.674,48.659 39.372 C 48.775 39.070,50.864 37.398,53.300 35.656 C 55.737 33.914,57.955 32.301,58.230 32.071 C 60.119 30.488,71.218 24.694,73.386 24.159 C 75.171 23.718,75.772 24.003,78.783 26.712 " stroke="none" fill="#040404" fill-rule="evenodd"></path></g></svg>